<svg width="12" height="12" viewBox="0 0 12 12" fill="none" xmlns="http://www.w3.org/2000/svg">
<path d="M7.39572 6.00002L11.6874 1.68856C11.7864 1.60029 11.8655 1.49191 11.9194 1.37064C11.9733 1.24937 12.0007 1.11798 12 0.985237C11.999 0.854303 11.9723 0.72485 11.9212 0.604337C11.87 0.483824 11.7956 0.37464 11.7022 0.283066C11.6088 0.191492 11.4982 0.119344 11.3768 0.0707814C11.2554 0.0222185 11.1257 -0.00180463 10.995 0.000105599C10.862 -0.00130459 10.7303 0.0259245 10.6088 0.0799475C10.4872 0.133971 10.3787 0.21353 10.2905 0.313233L5.98919 4.6006L1.69747 0.322862C1.61201 0.223821 1.5054 0.145329 1.38552 0.0932079C1.26565 0.0410865 1.1356 0.0166731 1.00502 0.0217824C0.875712 0.0182617 0.746986 0.0404661 0.626294 0.0870996C0.505602 0.133733 0.395337 0.203871 0.301877 0.293467C0.208418 0.383063 0.133621 0.490338 0.0818065 0.609078C0.0299925 0.727818 0.00219346 0.855665 1.63818e-05 0.985237C-0.000768921 1.11834 0.0266883 1.25009 0.0805738 1.37176C0.134459 1.49343 0.21354 1.60224 0.312575 1.69097L4.58025 5.99039L0.314982 10.2874C0.217123 10.3771 0.138839 10.4861 0.0850496 10.6075C0.03126 10.729 0.00313007 10.8603 0.00242305 10.9931C0.00242305 11.2601 0.108303 11.5162 0.296778 11.705C0.485253 11.8939 0.740884 11.9999 1.00743 11.9999C1.14289 12.0016 1.27717 11.9745 1.40147 11.9206C1.52577 11.8666 1.63729 11.787 1.72873 11.6868L5.9988 7.39943L10.2569 11.6772C10.4468 11.8726 10.7059 11.9851 10.9782 11.9903C11.1096 11.99 11.2397 11.9637 11.3609 11.9128C11.4822 11.862 11.5922 11.7877 11.6847 11.6941C11.7772 11.6006 11.8503 11.4896 11.8999 11.3677C11.9495 11.2457 11.9745 11.1152 11.9735 10.9835C11.9757 10.8486 11.9498 10.7147 11.8977 10.5904C11.8456 10.466 11.7682 10.3538 11.6706 10.2609L7.39572 6.00002ZM7.39572 6.00002L11.6874 1.68856C11.7864 1.60029 11.8655 1.49191 11.9194 1.37064C11.9733 1.24937 12.0007 1.11798 12 0.985237C11.999 0.854303 11.9723 0.72485 11.9212 0.604337C11.87 0.483824 11.7956 0.37464 11.7022 0.283066C11.6088 0.191492 11.4982 0.119344 11.3768 0.0707814C11.2554 0.0222185 11.1257 -0.00180463 10.995 0.000105599C10.862 -0.00130459 10.7303 0.0259245 10.6088 0.0799475C10.4872 0.133971 10.3787 0.21353 10.2905 0.313233L5.98919 4.6006L1.69747 0.322862C1.61201 0.223821 1.5054 0.145329 1.38552 0.0932079C1.26565 0.0410865 1.1356 0.0166731 1.00502 0.0217824C0.875712 0.0182617 0.746986 0.0404661 0.626294 0.0870996C0.505602 0.133733 0.395337 0.203871 0.301877 0.293467C0.208418 0.383063 0.133621 0.490338 0.0818065 0.609078C0.0299925 0.727818 0.00219346 0.855665 1.63818e-05 0.985237C-0.000768921 1.11834 0.0266883 1.25009 0.0805738 1.37176C0.134459 1.49343 0.21354 1.60224 0.312575 1.69097L4.58025 5.99039L0.314982 10.2874C0.217123 10.3771 0.138839 10.4861 0.0850496 10.6075C0.03126 10.729 0.00313007 10.8603 0.00242305 10.9931C0.00242305 11.2601 0.108303 11.5162 0.296778 11.705C0.485253 11.8939 0.740884 11.9999 1.00743 11.9999C1.14289 12.0016 1.27717 11.9745 1.40147 11.9206C1.52577 11.8666 1.63729 11.787 1.72873 11.6868L5.9988 7.39943L10.2569 11.6772C10.4468 11.8726 10.7059 11.9851 10.9782 11.9903C11.1096 11.99 11.2397 11.9637 11.3609 11.9128C11.4822 11.862 11.5922 11.7877 11.6847 11.6941C11.7772 11.6006 11.8503 11.4896 11.8999 11.3677C11.9495 11.2457 11.9745 11.1152 11.9735 10.9835C11.9757 10.8486 11.9498 10.7147 11.8977 10.5904C11.8456 10.466 11.7682 10.3538 11.6706 10.2609L7.39572 6.00002Z" fill="#ADAFC2"/>
</svg>
