<svg width="20" height="20" viewBox="0 0 20 20" fill="none" xmlns="http://www.w3.org/2000/svg">
<path d="M0 10C0 8.02219 0.586493 6.08879 1.68531 4.4443C2.78412 2.79981 4.34591 1.51809 6.17317 0.761209C8.00043 0.00433278 10.0111 -0.1937 11.9509 0.192152C13.8907 0.578004 15.6725 1.53041 17.0711 2.92894C18.4696 4.32746 19.422 6.10929 19.8079 8.0491C20.1937 9.9889 19.9957 11.9996 19.2388 13.8268C18.4819 15.6541 17.2002 17.2159 15.5557 18.3147C13.9112 19.4135 11.9778 20 10 20C7.35229 19.9855 4.81714 18.9273 2.9449 17.0551C1.07267 15.1829 0.0144574 12.6477 0 10ZM6.91309 14.1015L9.99214 11.0146L13.079 14.1015C13.1454 14.1713 13.2253 14.2268 13.3139 14.2647C13.4025 14.3026 13.4979 14.3219 13.5942 14.3217C13.689 14.3222 13.783 14.304 13.8708 14.268C13.9585 14.2321 14.0383 14.1792 14.1056 14.1123C14.1728 14.0454 14.2262 13.9659 14.2626 13.8783C14.299 13.7908 14.3177 13.6969 14.3177 13.602C14.318 13.5049 14.299 13.4087 14.2619 13.3189C14.2248 13.2291 14.1703 13.1476 14.1014 13.079L11.0146 10L14.1093 6.89737C14.1794 6.83475 14.235 6.75766 14.2723 6.67144C14.3097 6.58521 14.3279 6.49189 14.3256 6.39795C14.3256 6.3033 14.3068 6.20959 14.2704 6.12224C14.2339 6.03489 14.1805 5.95565 14.1132 5.88909C14.0459 5.82253 13.9661 5.76998 13.8783 5.73448C13.7906 5.69898 13.6967 5.68122 13.602 5.68226C13.5073 5.67959 13.4132 5.69836 13.3267 5.73718C13.2402 5.77599 13.1636 5.83384 13.1026 5.90641L9.99214 8.99332L6.89737 5.93394C6.83459 5.86408 6.75747 5.8086 6.67128 5.77127C6.58509 5.73394 6.49185 5.71566 6.39795 5.71766C6.30387 5.71556 6.21032 5.73233 6.12284 5.76701C6.03535 5.80169 5.95571 5.85356 5.88862 5.91955C5.82153 5.98554 5.76835 6.06432 5.73223 6.15122C5.69611 6.23812 5.67778 6.33138 5.67833 6.42548C5.67733 6.51888 5.69568 6.61147 5.73223 6.69742C5.76877 6.78337 5.82273 6.86082 5.89068 6.92489L8.97758 10.0197L5.89068 13.1144C5.82114 13.1789 5.7662 13.2576 5.72958 13.3451C5.69295 13.4326 5.67548 13.5269 5.67833 13.6217C5.67781 13.7164 5.69607 13.8102 5.73205 13.8977C5.76803 13.9853 5.82101 14.0648 5.88794 14.1317C5.95486 14.1986 6.0344 14.2516 6.12195 14.2876C6.20949 14.3236 6.3033 14.3419 6.39795 14.3413C6.49594 14.3403 6.5926 14.3184 6.68144 14.277C6.77028 14.2357 6.84925 14.1758 6.91309 14.1015Z" fill="#6A6B79"/>
</svg>
