<svg width="11" height="22" viewBox="0 0 11 22" fill="none" xmlns="http://www.w3.org/2000/svg">
<path d="M0.534755 11.6846H2.83669V21.1613C2.83669 21.3484 2.9883 21.5 3.1754 21.5H7.07842C7.26553 21.5 7.41713 21.3484 7.41713 21.1613V11.7292H10.0634C10.2355 11.7292 10.3802 11.6001 10.3999 11.4292L10.8018 7.94037C10.8128 7.84438 10.7824 7.74825 10.7182 7.67624C10.6539 7.60416 10.5619 7.56291 10.4654 7.56291H7.41727V5.37593C7.41727 4.71666 7.77224 4.38236 8.47242 4.38236C8.5722 4.38236 10.4654 4.38236 10.4654 4.38236C10.6525 4.38236 10.8041 4.23068 10.8041 4.04365V0.841216C10.8041 0.654113 10.6525 0.502506 10.4654 0.502506H7.71879C7.69941 0.501558 7.6564 0.5 7.59299 0.5C7.11643 0.5 5.45993 0.593552 4.15143 1.79733C2.70162 3.1313 2.90315 4.72852 2.95131 5.00545V7.56284H0.534755C0.347651 7.56284 0.196045 7.71445 0.196045 7.90155V11.3458C0.196045 11.5329 0.347651 11.6846 0.534755 11.6846Z" fill="#808190"/>
</svg>
