<svg width="51" height="51" viewBox="0 0 51 51" fill="none" xmlns="http://www.w3.org/2000/svg">
<path d="M0 15.1V8.4C0 2.8 2.9 0 8.6 0H15.3C16.7 0 17.5 0.8 17.5 2.2C17.5 3.6 16.7 4.4 15.3 4.4H8.7C6 4.4 4.4 5.8 4.4 8.7V15.2C4.4 16.6 3.6 17.4 2.2 17.4C0.8 17.4 0 16.6 0 15.1ZM0 41.7V35C0 33.6 0.8 32.8 2.2 32.8C3.6 32.8 4.4 33.6 4.4 35V41.5C4.4 44.3 5.9 45.8 8.7 45.8H15.3C16.7 45.8 17.5 46.6 17.5 48C17.5 49.4 16.7 50.2 15.3 50.2H8.6C2.9 50.2 0 47.4 0 41.7ZM15.3 16.1C16.4 16.1 17.2 16.9 17.2 17.9V21.5C17.2 22.6 16.5 23.4 15.3 23.4C14.2 23.4 13.5 22.7 13.5 21.5V17.9C13.5 16.8 14.3 16.1 15.3 16.1ZM16.2 34.2C16 33.9 15.8 33.6 15.8 33.1C15.8 32.3 16.4 31.7 17.2 31.7C17.7 31.7 18 31.9 18.4 32.3C20 33.9 22.3 34.9 24.7 34.9C27.1 34.9 29.5 33.9 31 32.3C31.4 31.9 31.7 31.7 32.2 31.7C33 31.7 33.6 32.3 33.6 33.1C33.6 33.6 33.4 33.9 33.2 34.2C31 36.4 27.8 37.8 24.7 37.8C21.6 37.8 18.4 36.4 16.2 34.2ZM22.4 26.7H23.3C23.7 26.7 24 26.5 24 26V17.4C24 16.5 24.6 16 25.4 16C26.2 16 26.8 16.5 26.8 17.4V25.7C26.8 28.3 25.4 29.6 23 29.6H22.8C21.5 29.6 21 28.9 21 28.1C20.9 27.3 21.6 26.7 22.4 26.7ZM34.4 16.1C35.5 16.1 36.2 16.9 36.2 17.9V21.5C36.2 22.6 35.5 23.4 34.4 23.4C33.3 23.4 32.5 22.7 32.5 21.5V17.9C32.5 16.8 33.3 16.1 34.4 16.1ZM45.8 15.1V8.7C45.8 5.9 44.2 4.4 41.6 4.4H35C33.6 4.4 32.8 3.6 32.8 2.2C32.8 0.8 33.6 0 35 0H41.7C47.4 0 50.3 2.8 50.3 8.4V15.1C50.3 16.5 49.5 17.3 48.1 17.3C46.6 17.4 45.8 16.6 45.8 15.1ZM32.7 48C32.7 46.6 33.5 45.8 34.9 45.8H41.5C44.2 45.8 45.7 44.4 45.7 41.5V35C45.7 33.6 46.5 32.8 47.9 32.8C49.3 32.8 50.1 33.6 50.1 35V41.7C50.1 47.3 47.3 50.2 41.5 50.2H34.8C33.5 50.2 32.7 49.4 32.7 48Z" fill="#2D7BF6"/>
</svg>
