<svg width="15" height="16" viewBox="0 0 15 16" fill="none" xmlns="http://www.w3.org/2000/svg">
<g clip-path="url(#clip0_488_3249)">
<path d="M7.4751 14.2292H1.86876C1.5249 14.2292 1.24585 13.9502 1.24585 13.6063V2.39369C1.24585 2.04983 1.52493 1.77078 1.86876 1.77078H7.4751C7.81957 1.77078 8.09801 1.49234 8.09801 1.14787C8.09801 0.803398 7.81957 0.524902 7.4751 0.524902H1.86876C0.838447 0.524902 0 1.36338 0 2.39369V13.6063C0 14.6366 0.838447 15.4751 1.86876 15.4751H7.4751C7.81957 15.4751 8.09801 15.1966 8.09801 14.8522C8.09801 14.5077 7.81957 14.2292 7.4751 14.2292Z" fill="#808190"/>
<path d="M14.8134 7.55653L11.026 3.81898C10.7818 3.57729 10.3869 3.58042 10.1452 3.82522C9.90351 4.07003 9.906 4.46434 10.1514 4.70604L12.858 7.37712H5.60533C5.26086 7.37712 4.98242 7.65556 4.98242 8.00003C4.98242 8.3445 5.26086 8.62297 5.60533 8.62297H12.858L10.1514 11.2941C9.90603 11.5358 9.90415 11.9301 10.1452 12.1749C10.2673 12.2982 10.428 12.3605 10.5887 12.3605C10.747 12.3605 10.9052 12.3007 11.026 12.1811L14.8134 8.44353C14.9318 8.32643 14.999 8.16693 14.999 8C14.999 7.83313 14.9324 7.67428 14.8134 7.55653Z" fill="#808190"/>
</g>
<defs>
<clipPath id="clip0_488_3249">
<rect width="15" height="15" fill="white" transform="translate(0 0.5)"/>
</clipPath>
</defs>
</svg>
