<svg width="164" height="88" viewBox="0 0 164 88" fill="none" xmlns="http://www.w3.org/2000/svg">
<path d="M33.8908 39.2974C33.5933 38.3021 32.4033 37.5059 30.8662 37.5059C29.3291 37.5059 28.1391 38.3021 28.1391 39.3472C28.1391 40.0439 28.7341 40.6411 30.0233 41.1885C30.4695 41.3378 31.61 41.6861 33.4445 42.2833C34.8329 42.7312 35.5766 42.9302 36.8658 43.7264C38.75 44.7217 39.8408 46.3142 39.9895 49.1508C39.9895 51.3902 39.1962 53.1319 37.6095 54.4755C36.0229 55.8192 33.99 56.4661 31.4612 56.4661C29.1308 56.4661 27.1475 55.9187 25.5112 54.8239C23.875 53.7291 22.8337 52.3357 22.3379 50.5939L27.4946 49.3498C27.8416 50.6437 29.4283 51.6887 31.4612 51.6887C33.2958 51.6887 34.7833 50.793 34.7833 49.5986C34.7833 49.1508 34.585 48.8024 34.1883 48.5038C33.4445 47.8569 32.6512 47.6081 31.362 47.1602L31.015 47.0607C30.2712 46.8118 29.6762 46.6128 29.2796 46.563L27.6929 45.9658C26.9987 45.6673 26.5029 45.4682 26.1558 45.2194C25.4616 44.7217 24.3212 43.9255 23.8254 43.1293C23.3296 42.333 22.9329 41.1387 22.9329 39.7951C22.9329 37.705 23.6271 36.013 25.065 34.7191C26.6021 33.3755 28.4862 32.7285 30.767 32.7285C32.8 32.7285 34.585 33.2262 36.0725 34.2712C37.6095 35.2665 38.5516 36.5604 38.9483 38.1031L33.8908 39.2974Z" fill="#EEF1F8"/>
<path d="M40.2375 39.0486H42.568V35.7642H47.4271V39.0486H51.245V43.1293H47.4271V49.6484C47.4271 50.6935 48.2205 51.4399 49.2617 51.4399H51.245V56.0183H48.4684C46.8321 56.0183 45.3942 55.5206 44.2538 54.4756C43.1134 53.4305 42.568 52.1366 42.568 50.5939V43.1293H40.2375V39.0486Z" fill="#EEF1F8"/>
<path d="M64.7317 34.8186C64.7317 34.0224 64.9796 33.3754 65.525 32.8778C66.0704 32.3801 66.715 32.0815 67.5084 32.0815C68.3017 32.0815 68.9463 32.3801 69.4421 32.8778C69.9875 33.3754 70.2355 34.0224 70.2355 34.8186C70.2355 35.6148 69.9875 36.2618 69.4421 36.7594C68.9463 37.257 68.3017 37.5556 67.5084 37.5556C66.715 37.5556 66.0704 37.3068 65.525 36.7594C65.0292 36.2618 64.7317 35.6148 64.7317 34.8186Z" fill="#EEF1F8"/>
<path d="M69.9378 39.0483H65.0786V56.018H69.9378V39.0483Z" fill="#EEF1F8"/>
<path d="M72.1194 31.5342H76.9786V45.6673L81.7386 38.9988H87.4902L81.6394 47.21L88.0852 55.9685H82.2344L76.929 48.7029V55.9685H72.0698V31.5342H72.1194Z" fill="#EEF1F8"/>
<path d="M63.3432 39.0483C61.4095 39.0483 59.6245 39.6953 58.1866 40.8399V39.0483H53.3274V56.018H58.1866V43.9252H63.3432V39.0483Z" fill="#EEF1F8"/>
<path d="M92.0519 50.0965C92.994 51.7387 94.8286 52.4852 96.7623 52.0373C98.1011 51.7387 99.0927 50.9922 99.6877 49.7979L104.497 49.7481C103.654 52.8833 101.175 55.272 97.6548 56.0682C95.0765 56.6654 92.7461 56.3668 90.6636 55.1227C88.5811 53.8786 87.2423 52.0373 86.6473 49.5491C86.0523 47.1106 86.3994 44.8712 87.6886 42.7811C88.9777 40.691 90.8123 39.3971 93.3411 38.8C95.8202 38.2028 98.0515 38.5511 100.134 39.845C102.216 41.0891 103.506 42.9802 104.101 45.4186C104.249 46.0158 104.299 46.613 104.299 47.1604L92.0519 50.0965ZM98.7952 44.7717C97.8036 43.229 96.0681 42.4825 94.2831 42.8806C92.5973 43.2788 91.3577 44.7219 91.2586 46.5632L98.7952 44.7717Z" fill="#EEF1F8"/>
<path d="M137.894 33.4314L131.051 31.5901L129.514 31.192C128.572 30.9432 127.58 30.9432 126.638 31.192L125.101 31.5901L118.259 33.4811C116.077 34.0286 114.59 35.7703 114.59 37.7609V44.0312C114.689 49.4555 118.507 54.2827 124.308 56.323C126.737 57.2188 129.465 57.2188 131.944 56.323C134.82 55.3277 137.249 53.586 138.935 51.4461C140.621 49.3062 141.612 46.7185 141.662 44.0312V37.6614C141.612 35.7205 140.075 33.9788 137.894 33.4314Z" fill="#508DF7"/>
<path d="M117.565 41.593H118.209V40.6973H119.548V41.593H120.589V42.7376H119.548V44.4794C119.548 44.7779 119.746 44.977 120.044 44.977H120.589V46.2211H119.845C119.399 46.2211 119.003 46.0718 118.705 45.823C118.408 45.5244 118.259 45.1761 118.259 44.7779V42.7874H117.614V41.593H117.565Z" fill="#F5F3F4"/>
<path d="M122.325 44.3302C122.473 44.8278 122.92 45.1264 123.415 45.1264C123.812 45.1264 124.11 44.9771 124.308 44.7283L125.597 45.0269C125.2 45.7733 124.407 46.271 123.415 46.271C122.721 46.271 122.126 46.0222 121.63 45.5743C121.135 45.1264 120.936 44.5292 120.936 43.8325C120.936 43.1358 121.184 42.5884 121.63 42.1405C122.077 41.6927 122.672 41.4438 123.366 41.4438C124.06 41.4438 124.605 41.6927 125.101 42.1405C125.548 42.5884 125.795 43.1856 125.795 43.8325C125.795 43.9818 125.795 44.1809 125.746 44.3302H122.325ZM124.457 43.3847C124.308 42.9368 123.862 42.5884 123.366 42.5884C122.92 42.5884 122.473 42.887 122.325 43.3847H124.457Z" fill="#F5F3F4"/>
<path d="M126.787 42.1406C127.184 41.6927 127.729 41.4438 128.324 41.4438C128.77 41.4438 129.217 41.5931 129.613 41.8917V41.5931H130.903V46.1715H129.613V45.8729C129.266 46.1715 128.82 46.3208 128.324 46.3208C127.729 46.3208 127.184 46.0719 126.787 45.6241C126.39 45.1762 126.192 44.579 126.192 43.8823C126.192 43.1856 126.39 42.6382 126.787 42.1406ZM127.531 43.8823C127.531 44.5292 127.977 44.9771 128.572 44.9771C129.118 44.9771 129.613 44.4795 129.613 43.8823C129.613 43.5837 129.514 43.3349 129.316 43.0861C129.118 42.887 128.87 42.7875 128.572 42.7875C127.977 42.7875 127.531 43.2354 127.531 43.8823Z" fill="#F5F3F4"/>
<path d="M131.646 46.1715V41.5931H132.985V41.9913C133.283 41.6429 133.679 41.4438 134.175 41.4438C134.77 41.4438 135.216 41.6927 135.564 42.1405C135.861 41.6927 136.307 41.4438 136.952 41.4438C137.448 41.4438 137.844 41.5931 138.192 41.9415C138.539 42.2898 138.687 42.688 138.687 43.1358V46.1217H137.349V43.534C137.349 43.0861 137.002 42.688 136.605 42.688C136.159 42.688 135.812 43.0363 135.812 43.534V46.1715H134.473V43.534C134.473 43.0861 134.126 42.688 133.729 42.688C133.283 42.688 132.936 43.0363 132.936 43.534V46.1715H131.646Z" fill="#F5F3F4"/>
</svg>
