<svg width="190" height="42" viewBox="0 0 190 42" fill="none" xmlns="http://www.w3.org/2000/svg">
<path d="M18.3156 13.1917C17.8439 11.6083 15.9574 10.3416 13.5205 10.3416C11.0837 10.3416 9.1971 11.6083 9.1971 13.2709C9.1971 14.3793 10.1404 15.3293 12.1842 16.2002C12.8917 16.4377 14.6996 16.9919 17.6081 17.942C19.8091 18.6545 20.9882 18.9712 23.032 20.2379C26.0191 21.8213 27.7485 24.3548 27.9843 28.8675C27.9843 32.4302 26.7266 35.2011 24.2112 37.3388C21.6957 39.4764 18.4728 40.5056 14.4638 40.5056C10.7692 40.5056 7.62494 39.6347 5.03089 37.893C2.43684 36.1512 0.786077 33.9344 0 31.1635L8.1752 29.1842C8.72545 31.2426 11.2409 32.9052 14.4638 32.9052C17.3723 32.9052 19.7305 31.4801 19.7305 29.58C19.7305 28.8675 19.4161 28.3133 18.7872 27.8383C17.6081 26.8091 16.3504 26.4132 14.3066 25.7007L13.7563 25.5423C12.5772 25.1465 11.6339 24.8298 11.0051 24.7506L8.48963 23.8006C7.38912 23.3256 6.60304 23.0089 6.05279 22.613C4.95228 21.8213 3.14431 20.5546 2.35823 19.2879C1.57215 18.0211 0.943292 16.121 0.943292 13.9834C0.943292 10.6583 2.0438 7.96647 4.32342 5.90803C6.76026 3.77043 9.74735 2.74121 13.3633 2.74121C16.5862 2.74121 19.4161 3.53292 21.7743 5.1955C24.2112 6.77891 25.7047 8.83735 26.3336 11.2916L18.3156 13.1917Z" fill="#EEF1F8"/>
<path d="M28.377 12.7961H32.0715V7.5708H39.7751V12.7961H45.8279V19.288H39.7751V29.6594C39.7751 31.322 41.0328 32.5095 42.6836 32.5095H45.8279V39.7932H41.4258C38.8318 39.7932 36.5522 39.0015 34.7442 37.3389C32.9362 35.6764 32.0715 33.6179 32.0715 31.1636V19.288H28.377V12.7961Z" fill="#EEF1F8"/>
<path d="M67.21 6.06678C67.21 4.80006 67.603 3.77084 68.4677 2.97913C69.3324 2.18743 70.3543 1.7124 71.612 1.7124C72.8697 1.7124 73.8916 2.18743 74.6777 2.97913C75.5424 3.77084 75.9354 4.80006 75.9354 6.06678C75.9354 7.33351 75.5424 8.36273 74.6777 9.15444C73.8916 9.94614 72.8697 10.4212 71.612 10.4212C70.3543 10.4212 69.3324 10.0253 68.4677 9.15444C67.6816 8.36273 67.21 7.33351 67.21 6.06678Z" fill="#EEF1F8"/>
<path d="M75.4633 12.7959H67.7598V39.7931H75.4633V12.7959Z" fill="#EEF1F8"/>
<path d="M78.9224 0.841309H86.6259V23.3258L94.1722 12.7169H103.291L94.015 25.78L104.234 39.7141H94.9583L86.5473 28.1552V39.7141H78.8438V0.841309H78.9224Z" fill="#EEF1F8"/>
<path d="M65.0087 12.7959C61.943 12.7959 59.1131 13.8251 56.8335 15.646V12.7959H49.1299V39.7931H56.8335V20.5546H65.0087V12.7959Z" fill="#EEF1F8"/>
<path d="M110.522 30.3719C112.015 32.9846 114.924 34.1721 117.99 33.4596C120.112 32.9846 121.684 31.797 122.627 29.8969L130.252 29.8177C128.916 34.8055 124.986 38.6057 119.405 39.8724C115.317 40.8225 111.622 40.3474 108.321 38.3682C105.019 36.3889 102.897 33.4596 101.954 29.5011C101.01 25.6217 101.561 22.059 103.604 18.7339C105.648 15.4087 108.557 13.3503 112.566 12.4002C116.496 11.4502 120.033 12.0044 123.335 14.0628C126.636 16.0421 128.68 19.0505 129.624 22.9299C129.859 23.88 129.938 24.83 129.938 25.7009L110.522 30.3719ZM121.213 21.9007C119.64 19.4464 116.889 18.2588 114.059 18.8922C111.387 19.5256 109.421 21.8215 109.264 24.7508L121.213 21.9007Z" fill="#EEF1F8"/>
<path d="M183.198 3.85957L172.35 0.930255L169.913 0.29689C168.419 -0.0989633 166.847 -0.0989633 165.354 0.29689L162.917 0.930255L152.069 3.93874C148.61 4.80961 146.252 7.58059 146.252 10.7474V20.7229C146.409 29.3525 152.462 37.0321 161.659 40.278C165.511 41.7031 169.834 41.7031 173.765 40.278C178.324 38.6946 182.176 35.9237 184.848 32.5193C187.521 29.115 189.093 24.9981 189.172 20.7229V10.5891C189.093 7.50142 186.656 4.73044 183.198 3.85957Z" fill="#508DF7"/>
<path d="M150.969 16.8435H151.991V15.4185H154.113V16.8435H155.764V18.6645H154.113V21.4354C154.113 21.9104 154.427 22.2271 154.899 22.2271H155.764V24.2064H154.585C153.877 24.2064 153.248 23.9689 152.777 23.573C152.305 23.098 152.069 22.5438 152.069 21.9104V18.7436H151.047V16.8435H150.969Z" fill="#F5F3F4"/>
<path d="M158.515 21.1979C158.751 21.9896 159.459 22.4646 160.245 22.4646C160.874 22.4646 161.345 22.2271 161.66 21.8312L163.704 22.3062C163.075 23.4938 161.817 24.2855 160.245 24.2855C159.144 24.2855 158.201 23.8897 157.415 23.1771C156.629 22.4646 156.314 21.5145 156.314 20.4061C156.314 19.2978 156.707 18.4269 157.415 17.7143C158.122 17.0018 159.066 16.606 160.166 16.606C161.267 16.606 162.131 17.0018 162.917 17.7143C163.625 18.4269 164.018 19.3769 164.018 20.4061C164.018 20.6437 164.018 20.9603 163.939 21.1979H158.515ZM161.896 19.6936C161.66 18.9811 160.952 18.4269 160.166 18.4269C159.459 18.4269 158.751 18.9019 158.515 19.6936H161.896Z" fill="#F5F3F4"/>
<path d="M165.59 17.7143C166.219 17.0018 167.083 16.606 168.027 16.606C168.734 16.606 169.442 16.8435 170.07 17.3185V16.8435H172.114V24.1272H170.07V23.6521C169.52 24.1272 168.813 24.3647 168.027 24.3647C167.083 24.3647 166.219 23.9688 165.59 23.2563C164.961 22.5438 164.646 21.5937 164.646 20.4853C164.646 19.3769 164.961 18.5061 165.59 17.7143ZM166.769 20.4853C166.769 21.5145 167.476 22.2271 168.42 22.2271C169.284 22.2271 170.07 21.4354 170.07 20.4853C170.07 20.0103 169.913 19.6144 169.599 19.2186C169.284 18.9019 168.891 18.7436 168.42 18.7436C167.476 18.7436 166.769 19.4561 166.769 20.4853Z" fill="#F5F3F4"/>
<path d="M173.293 24.1272V16.8435H175.415V17.4768C175.887 16.9226 176.516 16.606 177.302 16.606C178.245 16.606 178.953 17.0018 179.503 17.7143C179.975 17.0018 180.682 16.606 181.704 16.606C182.49 16.606 183.119 16.8435 183.669 17.3977C184.219 17.9519 184.455 18.5852 184.455 19.2978V24.048H182.333V19.9311C182.333 19.2186 181.783 18.5852 181.154 18.5852C180.446 18.5852 179.896 19.1394 179.896 19.9311V24.1272H177.774V19.9311C177.774 19.2186 177.223 18.5852 176.595 18.5852C175.887 18.5852 175.337 19.1394 175.337 19.9311V24.1272H173.293Z" fill="#F5F3F4"/>
</svg>
