<svg width="15" height="16" viewBox="0 0 15 16" fill="none" xmlns="http://www.w3.org/2000/svg">
<rect y="0.5" width="15" height="15" rx="7.5" fill="#2D7BF6"/>
<path d="M11 5.07143C11 5.35714 11 5.5 10.86 5.64286L7.36 11.0714C7.22 11.3571 7.08 11.5 6.8 11.5C6.52 11.5 6.38 11.3571 6.1 11.2143L4.14 8.64286C4 8.5 4 8.35714 4 8.21429C4 7.78571 4.28 7.5 4.7 7.5C4.84 7.5 5.12 7.64286 5.26 7.78571L6.8 9.78571L9.88 4.78571C10.02 4.64286 10.16 4.5 10.44 4.5C10.72 4.5 11 4.78571 11 5.07143Z" fill="white"/>
</svg>
