<svg width="24" height="17" viewBox="0 0 24 17" fill="none" xmlns="http://www.w3.org/2000/svg">
<path d="M0 15.2518C0 12.7553 2.46729 9.80496 6.4486 9.80496C8.13084 9.80496 9.42056 10.3156 10.4299 11.0532C8.52337 12.5851 7.51402 15.3085 8.41121 16.5H1.45794C0.448598 16.5 0 16.0461 0 15.2518ZM3.42056 5.03901C3.42056 3.16667 4.82243 1.69149 6.50467 1.69149C8.18692 1.69149 9.53271 3.16667 9.53271 5.03901C9.53271 6.96809 8.13084 8.44326 6.50467 8.44326C4.87851 8.44326 3.42056 6.96809 3.42056 5.03901ZM9.19626 15.3085C9.19626 12.9823 12.0561 9.8617 16.5981 9.8617C21.1402 9.8617 24 13.039 24 15.3085C24 16.1028 23.4953 16.4433 22.2617 16.4433H10.9907C9.70094 16.5 9.19626 16.1028 9.19626 15.3085ZM13.1215 4.35816C13.1215 2.20213 14.7477 0.5 16.6542 0.5C18.5607 0.5 20.1869 2.14539 20.1869 4.30142C20.1869 6.51418 18.5607 8.21631 16.6542 8.21631C14.7477 8.27305 13.1215 6.57092 13.1215 4.35816Z" fill="#6A6B79"/>
</svg>
