<svg width="18" height="18" viewBox="0 0 18 18" fill="none" xmlns="http://www.w3.org/2000/svg">
<path d="M0 8.99926C0 4.07056 4.06461 0 8.99331 0C13.922 0 18 4.07056 18 8.99926C18 13.928 13.9294 18 9.00075 18C4.07205 18 0 13.928 0 8.99926ZM16.715 8.99926C16.7144 7.47436 16.2618 5.98386 15.4142 4.7162C14.5666 3.44854 13.3623 2.46062 11.9533 1.87734C10.5444 1.29406 8.99416 1.1416 7.49859 1.43924C6.00302 1.73687 4.62927 2.47124 3.551 3.54951C2.47273 4.62778 1.73836 6.00153 1.44072 7.4971C1.14309 8.99267 1.29554 10.5429 1.87882 11.9518C2.46211 13.3608 3.45002 14.5652 4.71769 15.4127C5.98535 16.2603 7.47585 16.713 9.00075 16.7135C10.014 16.7141 11.0174 16.515 11.9536 16.1275C12.8898 15.7401 13.7404 15.1718 14.4569 14.4554C15.1733 13.7389 15.7415 12.8883 16.129 11.9521C16.5165 11.0159 16.7156 10.0125 16.715 8.99926ZM6.58845 11.9856V6.01289C6.58845 5.63364 7.03462 5.46707 7.38264 5.6738L12.2355 8.57093C12.3119 8.61427 12.3754 8.67709 12.4196 8.75299C12.4638 8.82889 12.4871 8.91514 12.4871 9.00297C12.4871 9.0908 12.4638 9.17706 12.4196 9.25296C12.3754 9.32885 12.3119 9.39167 12.2355 9.43501L7.38264 12.3292C7.01678 12.5389 6.58845 12.3664 6.58845 11.9856Z" fill="#EEF1F8"/>
</svg>
