<svg width="21" height="13" viewBox="0 0 21 13" fill="none" xmlns="http://www.w3.org/2000/svg">
<path d="M0.833008 11.9858C0.833008 9.95745 2.88908 7.56028 6.20684 7.56028C7.60871 7.56028 8.68348 7.97518 9.5246 8.57447C7.93581 9.81915 7.09469 12.0319 7.84235 13H2.04796C1.20684 13 0.833008 12.6312 0.833008 11.9858ZM3.68348 3.68794C3.68348 2.16667 4.8517 0.968085 6.25357 0.968085C7.65544 0.968085 8.77693 2.16667 8.77693 3.68794C8.77693 5.25532 7.60871 6.4539 6.25357 6.4539C4.89843 6.4539 3.68348 5.25532 3.68348 3.68794ZM8.49656 12.0319C8.49656 10.1418 10.8797 7.60638 14.6648 7.60638C18.4498 7.60638 20.833 10.1879 20.833 12.0319C20.833 12.6773 20.4124 12.9539 19.3844 12.9539H9.99189C8.91712 13 8.49656 12.6773 8.49656 12.0319ZM11.7676 3.13475C11.7676 1.38298 13.1227 0 14.7115 0C16.3003 0 17.6554 1.33688 17.6554 3.08865C17.6554 4.88652 16.3003 6.2695 14.7115 6.2695C13.1227 6.3156 11.7676 4.93262 11.7676 3.13475Z" fill="#2D7BF6"/>
</svg>
