<svg width="19" height="18" viewBox="0 0 19 18" fill="none" xmlns="http://www.w3.org/2000/svg">
<path d="M0.5 13.6817C0.506688 12.6055 0.939793 11.5752 1.70561 10.8137C2.47142 10.0522 3.50836 9.6207 4.59207 9.61264C5.67768 9.61964 6.71681 10.051 7.48447 10.8133C8.25212 11.5757 8.68651 12.6076 8.69356 13.6857C8.68305 14.7629 8.24764 15.7931 7.48081 16.5552C6.71397 17.3172 5.67684 17.7502 4.59207 17.7614C3.50607 17.7547 2.46671 17.3222 1.70029 16.5581C0.933871 15.794 0.502463 14.7601 0.5 13.6817ZM5.13015 15.8484V14.1786H6.69326C6.75984 14.179 6.82584 14.1662 6.88744 14.1411C6.94904 14.116 7.00503 14.0791 7.05218 14.0324C7.09932 13.9857 7.13669 13.9302 7.16213 13.8691C7.18757 13.8079 7.20057 13.7424 7.2004 13.6763C7.20075 13.6101 7.18788 13.5444 7.16252 13.4832C7.13716 13.4219 7.09982 13.3663 7.05265 13.3194C7.00549 13.2726 6.94944 13.2355 6.88775 13.2103C6.82606 13.1851 6.75996 13.1723 6.69326 13.1727H5.13015V11.5096C5.12975 11.4412 5.11527 11.3737 5.0876 11.3111C5.05993 11.2485 5.01965 11.1922 4.96924 11.1456C4.91884 11.0991 4.85937 11.0633 4.79451 11.0404C4.72964 11.0175 4.66075 11.0081 4.59207 11.0126C4.52394 11.009 4.45577 11.0192 4.3917 11.0425C4.32763 11.0658 4.26898 11.1017 4.21931 11.1482C4.16964 11.1946 4.12997 11.2506 4.10271 11.3127C4.07546 11.3748 4.06117 11.4418 4.06072 11.5096V13.1727H2.49088C2.35705 13.1744 2.22921 13.2281 2.1347 13.3222C2.04018 13.4163 1.98648 13.5434 1.98509 13.6763C1.98545 13.8094 2.03885 13.937 2.13363 14.0311C2.2284 14.1252 2.35685 14.1782 2.49088 14.1786H4.06072V15.8484C4.06158 15.9164 4.07608 15.9834 4.10339 16.0457C4.1307 16.108 4.17026 16.1643 4.21976 16.2112C4.26925 16.2581 4.32767 16.2947 4.39161 16.3189C4.45554 16.3431 4.52369 16.3544 4.59207 16.352C4.661 16.3553 4.72988 16.3447 4.7946 16.3209C4.85932 16.2971 4.91855 16.2607 4.96877 16.2137C5.01898 16.1667 5.05915 16.1101 5.08688 16.0474C5.1146 15.9846 5.12932 15.9169 5.13015 15.8484ZM18.4973 13.7752C18.4973 14.6635 17.8718 15.079 16.5656 15.079H9.54372C9.67123 14.6857 9.73702 14.2752 9.73877 13.862H16.797C17.066 13.862 17.1656 13.7872 17.1656 13.5948C17.1656 12.2483 15.102 9.88248 11.4633 9.88248C10.4593 9.87257 9.46588 10.0867 8.55635 10.509C8.30283 10.1563 7.99978 9.84137 7.65642 9.5739C8.83174 8.96591 10.1409 8.65788 11.466 8.67754C15.7679 8.67754 18.5 11.6084 18.5 13.7752H18.4973ZM7.99406 3.92857C7.98733 1.89806 9.55717 0.245605 11.47 0.245605C13.3829 0.245605 14.95 1.87936 14.95 3.91521C14.95 5.99514 13.399 7.67164 11.4794 7.67164C9.55986 7.67164 8.00213 6.00583 7.99675 3.92857H7.99406ZM13.6587 3.91521C13.6587 2.53126 12.6699 1.46257 11.47 1.46257C10.2701 1.46257 9.2693 2.54328 9.27603 3.92189C9.27603 5.34992 10.2701 6.46002 11.47 6.46002C12.6699 6.46002 13.6613 5.3379 13.6613 3.91521H13.6587Z" fill="#EEF1F8"/>
</svg>
