<svg width="700" height="433" viewBox="0 0 700 433" fill="none" xmlns="http://www.w3.org/2000/svg">
<path d="M0 0H700V433H32C14.3269 433 0 418.673 0 401V0Z" fill="#18191F"/>
<path d="M105.695 66.0078C105.695 68.8027 109.193 71.5098 113.834 71.5098C118.949 71.5098 122.535 68.5918 122.535 64.4434C122.535 61.4023 120.303 58.8535 117.367 58.5547V58.3086C119.793 57.9219 121.762 55.4785 121.762 52.8594C121.762 49.1504 118.475 46.5312 113.834 46.5312C109.369 46.5312 106.152 49.1328 106.152 51.9102C106.152 52.9297 106.838 53.6328 107.822 53.6328C108.596 53.6328 109.123 53.2637 109.58 52.332C110.406 50.6621 111.848 49.7305 113.746 49.7305C116.189 49.7305 117.859 51.1895 117.859 53.3516C117.859 55.4961 116.154 57.043 113.799 57.043H111.971C111.004 57.043 110.336 57.7285 110.336 58.6426C110.336 59.5918 111.021 60.2949 111.971 60.2949H113.904C116.717 60.2949 118.598 61.9121 118.598 64.3203C118.598 66.7461 116.752 68.293 113.887 68.293C111.725 68.293 110.037 67.3438 109.07 65.6211C108.508 64.6895 108.016 64.3379 107.312 64.3379C106.363 64.3379 105.695 65.041 105.695 66.0078ZM125.611 59.5391C125.611 63.2129 126.279 66.043 127.615 68.0293C129.127 70.2969 131.553 71.5098 134.559 71.5098C139.621 71.5098 143.049 68.1699 143.049 63.248C143.049 58.6602 139.92 55.4609 135.49 55.4609C132.801 55.4609 130.375 56.9375 129.549 59.0469H129.408C129.443 53.0176 131.377 49.8184 135.016 49.8184C136.457 49.8184 137.652 50.3281 138.9 51.4531C139.639 52.0859 140.078 52.2969 140.658 52.2969C141.572 52.2969 142.258 51.6465 142.258 50.7324C142.258 49.8535 141.52 48.8164 140.324 48.0254C138.918 47.0938 137.055 46.5664 135.051 46.5664C128.986 46.5664 125.611 51.207 125.611 59.5391ZM129.918 63.3887C129.918 60.5586 131.834 58.5898 134.559 58.5898C137.354 58.5898 139.199 60.5059 139.199 63.4062C139.199 66.3242 137.371 68.2578 134.646 68.2578C131.887 68.2578 129.918 66.2363 129.918 63.3887ZM164.582 69.1543C164.582 70.4375 165.285 71.1934 166.463 71.1934C167.658 71.1934 168.361 70.4375 168.361 69.1543V66.3066H169.82C170.98 66.3066 171.648 65.6914 171.648 64.6543C171.648 63.6172 170.963 62.9844 169.82 62.9844H168.361V49.6953C168.361 47.7969 167.166 46.6895 165.145 46.6895C163.598 46.6895 162.613 47.3398 161.348 49.2031C157.814 54.4414 156.074 57.3242 153.842 61.4199C153.209 62.6504 152.998 63.3184 152.998 64.0391C152.998 65.4453 154 66.3066 155.6 66.3066H164.582V69.1543ZM156.707 62.9844V62.8262C158.588 59.4863 161.875 54.0371 164.389 50.2754H164.582V62.9844H156.707ZM174.812 66.1836C174.812 68.7676 177.977 71.5098 182.688 71.5098C187.891 71.5098 191.477 68.082 191.477 63.0723C191.477 58.4844 188.33 55.3027 183.812 55.3027C181.773 55.3027 179.77 56.1113 178.961 57.2539H178.732L179.312 50.3105H188.576C189.824 50.3105 190.527 49.7305 190.527 48.6582C190.527 47.6035 189.807 46.9883 188.576 46.9883H178.662C176.939 46.9883 176.043 47.709 175.92 49.2031L175.217 58.6074C175.111 60.1016 175.885 61.0332 177.133 61.0332C177.748 61.0332 178.17 60.8223 179.33 59.7852C180.35 58.9414 181.562 58.4844 182.828 58.4844C185.588 58.4844 187.557 60.4355 187.557 63.248C187.557 66.166 185.518 68.1875 182.617 68.1875C180.684 68.1875 179.172 67.2734 178.117 65.5156C177.607 64.6719 177.133 64.3555 176.447 64.3555C175.445 64.3555 174.812 65.1289 174.812 66.1836ZM195.713 67.3086C195.713 68.293 196.469 69.3125 197.717 70.1035C199.105 70.9824 200.969 71.4746 202.973 71.4746C209.055 71.4746 212.324 67.0625 212.324 58.7656C212.324 50.873 209.178 46.4961 203.482 46.4961C198.35 46.4961 194.939 49.7832 194.939 54.7227C194.939 59.4336 198.033 62.7031 202.498 62.7031C205.275 62.7031 207.508 61.3145 208.387 59.0117H208.545C208.545 64.8652 206.629 68.2227 202.938 68.2227C201.355 68.2227 200.16 67.6602 198.93 66.5352C198.244 65.9199 197.84 65.7266 197.295 65.7266C196.381 65.7266 195.713 66.3594 195.713 67.3086ZM207.947 54.7227C207.947 57.5879 206.084 59.5215 203.359 59.5215C200.617 59.5215 198.789 57.5879 198.789 54.7051C198.789 51.7695 200.635 49.748 203.342 49.748C206.066 49.748 207.947 51.7871 207.947 54.7227Z" fill="white"/>
<path d="M68.8711 68.2518C68.8711 65.7553 71.3384 62.805 75.3197 62.805C77.0019 62.805 78.2917 63.3156 79.301 64.0532C77.3945 65.5851 76.3851 68.3085 77.2823 69.5H70.329C69.3197 69.5 68.8711 69.0461 68.8711 68.2518ZM72.2917 58.039C72.2917 56.1667 73.6935 54.6915 75.3758 54.6915C77.058 54.6915 78.4038 56.1667 78.4038 58.039C78.4038 59.9681 77.0019 61.4433 75.3758 61.4433C73.7496 61.4433 72.2917 59.9681 72.2917 58.039ZM78.0674 68.3085C78.0674 65.9823 80.9272 62.8617 85.4692 62.8617C90.0113 62.8617 92.8711 66.039 92.8711 68.3085C92.8711 69.1028 92.3664 69.4433 91.1328 69.4433H79.8617C78.572 69.5 78.0674 69.1028 78.0674 68.3085ZM81.9926 57.3582C81.9926 55.2021 83.6188 53.5 85.5253 53.5C87.4318 53.5 89.058 55.1454 89.058 57.3014C89.058 59.5142 87.4318 61.2163 85.5253 61.2163C83.6188 61.2731 81.9926 59.5709 81.9926 57.3582Z" fill="#6A6B79"/>
<line x1="60" y1="198.5" x2="640" y2="198.5" stroke="#272A33"/>
<line x1="60" y1="231.5" x2="640" y2="231.5" stroke="#272A33"/>
<line x1="60" y1="264.5" x2="640" y2="264.5" stroke="#272A33"/>
<line x1="60" y1="297.5" x2="640" y2="297.5" stroke="#272A33"/>
<line x1="60" y1="330.5" x2="640" y2="330.5" stroke="#272A33"/>
<line x1="60" y1="363.5" x2="640" y2="363.5" stroke="#272A33"/>
<rect x="60" y="122" width="580" height="30" rx="6" fill="#1E1F26"/>
<path d="M90.3799 142.239C89.0081 142.239 87.9235 141.777 87.126 140.852C86.3285 139.926 85.9297 138.666 85.9297 137.071C85.9297 135.472 86.3262 134.209 87.1191 133.284C87.9167 132.359 89.0013 131.896 90.373 131.896C91.4577 131.896 92.3805 132.215 93.1416 132.854C93.9072 133.487 94.3516 134.307 94.4746 135.314H92.9502C92.8044 134.708 92.499 134.225 92.0342 133.865C91.5739 133.505 91.0202 133.325 90.373 133.325C89.4889 133.325 88.7871 133.662 88.2676 134.337C87.7526 135.007 87.4951 135.918 87.4951 137.071C87.4951 138.22 87.7526 139.131 88.2676 139.806C88.7871 140.476 89.4912 140.811 90.3799 140.811C91.0316 140.811 91.5876 140.646 92.0479 140.318C92.5127 139.99 92.8135 139.548 92.9502 138.992H94.4746C94.3379 139.967 93.8958 140.754 93.1484 141.351C92.401 141.943 91.4782 142.239 90.3799 142.239ZM102.015 134.556V135.793H99.6699V142H98.2002V135.793H95.8555V134.556H102.015ZM107.531 134.433C108.479 134.433 109.231 134.779 109.787 135.472C110.343 136.16 110.621 137.094 110.621 138.274C110.621 139.455 110.343 140.391 109.787 141.084C109.236 141.777 108.488 142.123 107.545 142.123C107.016 142.123 106.551 142.014 106.15 141.795C105.749 141.572 105.451 141.264 105.255 140.872H105.139V144.413H103.669V134.556H105.084V135.786H105.193C105.417 135.362 105.736 135.032 106.15 134.795C106.565 134.553 107.025 134.433 107.531 134.433ZM107.114 140.804C107.739 140.804 108.226 140.58 108.577 140.134C108.933 139.683 109.11 139.063 109.11 138.274C109.11 137.486 108.933 136.868 108.577 136.422C108.226 135.975 107.741 135.752 107.121 135.752C106.501 135.752 106.011 135.98 105.651 136.436C105.291 136.887 105.111 137.502 105.111 138.281C105.111 139.056 105.291 139.671 105.651 140.127C106.011 140.578 106.499 140.804 107.114 140.804ZM114.969 140.886C115.52 140.886 115.978 140.731 116.343 140.421C116.712 140.111 116.896 139.724 116.896 139.259V138.637L115.078 138.753C114.568 138.785 114.192 138.89 113.95 139.067C113.709 139.245 113.588 139.498 113.588 139.826C113.588 140.154 113.715 140.414 113.971 140.605C114.226 140.792 114.559 140.886 114.969 140.886ZM114.593 142.123C113.864 142.123 113.267 141.92 112.802 141.515C112.341 141.104 112.111 140.564 112.111 139.895C112.111 139.229 112.351 138.707 112.829 138.329C113.308 137.946 113.991 137.728 114.88 137.673L116.896 137.557V136.914C116.896 136.518 116.767 136.215 116.507 136.005C116.247 135.791 115.869 135.684 115.372 135.684C114.962 135.684 114.62 135.757 114.347 135.902C114.078 136.044 113.902 136.246 113.82 136.511H112.398C112.471 135.873 112.784 135.365 113.335 134.986C113.891 134.604 114.593 134.412 115.44 134.412C116.37 134.412 117.088 134.633 117.594 135.075C118.104 135.513 118.359 136.126 118.359 136.914V142H116.944V140.954H116.828C116.605 141.328 116.297 141.617 115.905 141.822C115.518 142.023 115.08 142.123 114.593 142.123ZM120.656 142V134.556H122.126V137.536H125.612V134.556H127.082V142H125.612V138.773H122.126V142H120.656ZM131.771 140.886C132.323 140.886 132.781 140.731 133.146 140.421C133.515 140.111 133.699 139.724 133.699 139.259V138.637L131.881 138.753C131.37 138.785 130.994 138.89 130.753 139.067C130.511 139.245 130.391 139.498 130.391 139.826C130.391 140.154 130.518 140.414 130.773 140.605C131.029 140.792 131.361 140.886 131.771 140.886ZM131.396 142.123C130.666 142.123 130.069 141.92 129.604 141.515C129.144 141.104 128.914 140.564 128.914 139.895C128.914 139.229 129.153 138.707 129.632 138.329C130.11 137.946 130.794 137.728 131.683 137.673L133.699 137.557V136.914C133.699 136.518 133.569 136.215 133.31 136.005C133.05 135.791 132.672 135.684 132.175 135.684C131.765 135.684 131.423 135.757 131.149 135.902C130.881 136.044 130.705 136.246 130.623 136.511H129.201C129.274 135.873 129.586 135.365 130.138 134.986C130.694 134.604 131.396 134.412 132.243 134.412C133.173 134.412 133.891 134.633 134.396 135.075C134.907 135.513 135.162 136.126 135.162 136.914V142H133.747V140.954H133.631C133.408 141.328 133.1 141.617 132.708 141.822C132.321 142.023 131.883 142.123 131.396 142.123Z" fill="#ADAFC2"/>
<path d="M87.2969 188.068C87.0508 188.068 86.8685 188.039 86.75 187.979V186.872C86.8958 186.909 87.0781 186.927 87.2969 186.927C87.666 186.927 87.9782 186.845 88.2334 186.681C88.4886 186.517 88.7142 186.255 88.9102 185.895L85.54 178.136H86.8525L89.498 184.527H89.6074L92.1914 178.136H93.4697L90.4482 185.177C90.3024 185.514 90.168 185.803 90.0449 186.045C89.9264 186.286 89.792 186.523 89.6416 186.756C89.4958 186.984 89.3454 187.175 89.1904 187.33C89.04 187.48 88.8691 187.615 88.6777 187.733C88.4863 187.847 88.2767 187.932 88.0488 187.986C87.821 188.041 87.5703 188.068 87.2969 188.068ZM96.0127 183.714H96.334L99.2529 180.631H100.682L97.3047 184.104L100.812 188H99.2871L96.334 184.644H96.0127V188H94.8369V180.631H96.0127V183.714ZM106.041 180.501C106.98 180.501 107.729 180.847 108.29 181.54C108.855 182.233 109.138 183.158 109.138 184.315C109.138 185.468 108.855 186.394 108.29 187.091C107.725 187.784 106.975 188.13 106.041 188.13C105.517 188.13 105.052 188.023 104.646 187.809C104.241 187.59 103.938 187.285 103.737 186.893H103.628V190.461H102.452V180.631H103.573V181.861H103.683C103.92 181.438 104.245 181.105 104.66 180.863C105.079 180.622 105.54 180.501 106.041 180.501ZM105.761 187.07C106.435 187.07 106.964 186.826 107.347 186.339C107.729 185.851 107.921 185.177 107.921 184.315C107.921 183.454 107.729 182.78 107.347 182.292C106.968 181.804 106.442 181.561 105.768 181.561C105.102 181.561 104.574 181.809 104.182 182.306C103.79 182.798 103.594 183.468 103.594 184.315C103.594 185.159 103.787 185.828 104.175 186.325C104.567 186.822 105.095 187.07 105.761 187.07ZM113.396 187.098C114.003 187.098 114.504 186.922 114.9 186.571C115.301 186.22 115.502 185.781 115.502 185.252V184.575L113.52 184.705C112.964 184.742 112.556 184.858 112.296 185.054C112.036 185.25 111.906 185.535 111.906 185.908C111.906 186.277 112.045 186.569 112.323 186.783C112.601 186.993 112.959 187.098 113.396 187.098ZM113.178 188.13C112.453 188.13 111.856 187.932 111.387 187.535C110.922 187.134 110.689 186.601 110.689 185.936C110.689 185.279 110.922 184.764 111.387 184.391C111.852 184.017 112.515 183.805 113.376 183.755L115.502 183.625V182.955C115.502 182.499 115.361 182.151 115.078 181.909C114.796 181.668 114.381 181.547 113.834 181.547C113.392 181.547 113.025 181.627 112.733 181.786C112.442 181.946 112.255 182.171 112.173 182.463H110.983C111.061 181.875 111.364 181.401 111.893 181.041C112.426 180.681 113.087 180.501 113.875 180.501C114.768 180.501 115.459 180.717 115.946 181.15C116.434 181.583 116.678 182.185 116.678 182.955V188H115.557V186.913H115.447C115.21 187.305 114.896 187.606 114.504 187.815C114.112 188.025 113.67 188.13 113.178 188.13ZM120.253 188H119.077V180.631H120.253V186.127H120.362L124.102 180.631H125.277V188H124.102V182.504H123.992L120.253 188ZM127.622 188V180.631H128.798V183.68H132.544V180.631H133.72V188H132.544V184.664H128.798V188H127.622ZM138.334 187.098C138.94 187.098 139.441 186.922 139.838 186.571C140.239 186.22 140.439 185.781 140.439 185.252V184.575L138.457 184.705C137.901 184.742 137.493 184.858 137.233 185.054C136.974 185.25 136.844 185.535 136.844 185.908C136.844 186.277 136.983 186.569 137.261 186.783C137.539 186.993 137.896 187.098 138.334 187.098ZM138.115 188.13C137.391 188.13 136.794 187.932 136.324 187.535C135.859 187.134 135.627 186.601 135.627 185.936C135.627 185.279 135.859 184.764 136.324 184.391C136.789 184.017 137.452 183.805 138.313 183.755L140.439 183.625V182.955C140.439 182.499 140.298 182.151 140.016 181.909C139.733 181.668 139.318 181.547 138.771 181.547C138.329 181.547 137.963 181.627 137.671 181.786C137.379 181.946 137.192 182.171 137.11 182.463H135.921C135.998 181.875 136.301 181.401 136.83 181.041C137.363 180.681 138.024 180.501 138.812 180.501C139.706 180.501 140.396 180.717 140.884 181.15C141.371 181.583 141.615 182.185 141.615 182.955V188H140.494V186.913H140.385C140.148 187.305 139.833 187.606 139.441 187.815C139.049 188.025 138.607 188.13 138.115 188.13Z" fill="#ADAFC2"/>
<path d="M86.3262 211.136H90.0518C90.986 211.136 91.7448 211.434 92.3281 212.031C92.916 212.624 93.21 213.389 93.21 214.328C93.21 215.249 92.9115 216.005 92.3145 216.598C91.722 217.186 90.9632 217.479 90.0381 217.479H87.5566V221H86.3262V211.136ZM87.5566 212.229V216.386H89.7305C90.4323 216.386 90.9769 216.206 91.3643 215.846C91.7516 215.486 91.9453 214.98 91.9453 214.328C91.9453 213.649 91.7539 213.13 91.3711 212.77C90.9928 212.41 90.446 212.229 89.7305 212.229H87.5566ZM96.4912 219.353C96.8695 219.831 97.4072 220.07 98.1045 220.07C98.8018 220.07 99.3395 219.831 99.7178 219.353C100.096 218.869 100.285 218.19 100.285 217.315C100.285 216.44 100.096 215.764 99.7178 215.285C99.3395 214.802 98.8018 214.561 98.1045 214.561C97.4072 214.561 96.8695 214.802 96.4912 215.285C96.113 215.764 95.9238 216.44 95.9238 217.315C95.9238 218.19 96.113 218.869 96.4912 219.353ZM100.586 220.111C99.9798 220.79 99.1527 221.13 98.1045 221.13C97.0563 221.13 96.2269 220.79 95.6162 220.111C95.0101 219.428 94.707 218.496 94.707 217.315C94.707 216.131 95.0101 215.199 95.6162 214.52C96.2223 213.84 97.0518 213.501 98.1045 213.501C99.1572 213.501 99.9867 213.84 100.593 214.52C101.199 215.199 101.502 216.131 101.502 217.315C101.502 218.496 101.197 219.428 100.586 220.111ZM109.582 215.887H108.393C108.292 215.499 108.076 215.183 107.743 214.937C107.415 214.686 106.998 214.561 106.492 214.561C105.831 214.561 105.305 214.807 104.913 215.299C104.526 215.791 104.332 216.454 104.332 217.288C104.332 218.136 104.528 218.812 104.92 219.318C105.312 219.82 105.836 220.07 106.492 220.07C106.989 220.07 107.401 219.959 107.729 219.735C108.062 219.512 108.283 219.193 108.393 218.778H109.582C109.473 219.476 109.147 220.043 108.604 220.48C108.062 220.913 107.36 221.13 106.499 221.13C105.465 221.13 104.642 220.784 104.031 220.091C103.421 219.394 103.115 218.459 103.115 217.288C103.115 216.14 103.421 215.221 104.031 214.533C104.642 213.845 105.462 213.501 106.492 213.501C107.354 213.501 108.055 213.727 108.598 214.178C109.145 214.629 109.473 215.199 109.582 215.887ZM117.553 215.887H116.363C116.263 215.499 116.047 215.183 115.714 214.937C115.386 214.686 114.969 214.561 114.463 214.561C113.802 214.561 113.276 214.807 112.884 215.299C112.496 215.791 112.303 216.454 112.303 217.288C112.303 218.136 112.499 218.812 112.891 219.318C113.283 219.82 113.807 220.07 114.463 220.07C114.96 220.07 115.372 219.959 115.7 219.735C116.033 219.512 116.254 219.193 116.363 218.778H117.553C117.443 219.476 117.118 220.043 116.575 220.48C116.033 220.913 115.331 221.13 114.47 221.13C113.435 221.13 112.613 220.784 112.002 220.091C111.391 219.394 111.086 218.459 111.086 217.288C111.086 216.14 111.391 215.221 112.002 214.533C112.613 213.845 113.433 213.501 114.463 213.501C115.324 213.501 116.026 213.727 116.568 214.178C117.115 214.629 117.443 215.199 117.553 215.887ZM120.595 221H119.419V213.631H120.595V219.127H120.704L124.443 213.631H125.619V221H124.443V215.504H124.334L120.595 221ZM130.5 217.377H131.888V214.615H130.5C130.012 214.615 129.625 214.743 129.338 214.998C129.051 215.249 128.907 215.597 128.907 216.044C128.907 216.436 129.053 216.757 129.345 217.008C129.636 217.254 130.021 217.377 130.5 217.377ZM131.888 221V218.361H130.623L128.743 221H127.342L129.399 218.143C128.88 217.997 128.472 217.742 128.176 217.377C127.88 217.012 127.731 216.577 127.731 216.071C127.731 215.315 127.98 214.72 128.477 214.287C128.978 213.85 129.652 213.631 130.5 213.631H133.063V221H131.888Z" fill="#ADAFC2"/>
<path d="M93.0732 251.04C93.0732 251.91 92.777 252.621 92.1846 253.173C91.5967 253.724 90.8402 254 89.915 254H86.3262V244.136H92.0889V245.243H87.5566V248.066H89.9014C90.8311 248.066 91.5921 248.344 92.1846 248.9C92.777 249.452 93.0732 250.165 93.0732 251.04ZM87.5566 252.893H89.5938C90.3001 252.893 90.8447 252.733 91.2275 252.414C91.6149 252.09 91.8086 251.632 91.8086 251.04C91.8086 250.443 91.6149 249.983 91.2275 249.659C90.8447 249.336 90.3001 249.174 89.5938 249.174H87.5566V252.893ZM98.0156 247.54C97.4277 247.54 96.9447 247.738 96.5664 248.135C96.1882 248.531 95.9762 249.055 95.9307 249.707H99.9912C99.9775 249.055 99.7907 248.531 99.4307 248.135C99.0706 247.738 98.599 247.54 98.0156 247.54ZM99.957 252.093H101.133C100.955 252.731 100.593 253.23 100.046 253.59C99.5036 253.95 98.8314 254.13 98.0293 254.13C97.0085 254.13 96.1995 253.788 95.6025 253.104C95.0055 252.416 94.707 251.489 94.707 250.322C94.707 249.16 95.0078 248.233 95.6094 247.54C96.2109 246.847 97.0176 246.501 98.0293 246.501C99.0228 246.501 99.8044 246.831 100.374 247.492C100.944 248.153 101.229 249.058 101.229 250.206V250.657H95.9307V250.712C95.9626 251.441 96.1676 252.02 96.5459 252.448C96.9287 252.877 97.4323 253.091 98.0566 253.091C99.0091 253.091 99.6426 252.758 99.957 252.093ZM104.975 250.767C104.943 251.19 104.897 251.564 104.838 251.888C104.779 252.211 104.694 252.514 104.585 252.797C104.48 253.079 104.348 253.312 104.188 253.494C104.034 253.672 103.84 253.811 103.607 253.911C103.375 254.011 103.108 254.062 102.808 254.062C102.639 254.062 102.495 254.036 102.377 253.986V252.906C102.486 252.943 102.609 252.961 102.746 252.961C103.092 252.961 103.35 252.774 103.519 252.4C103.692 252.022 103.803 251.468 103.854 250.739L104.141 246.631H108.96V254H107.784V247.615H105.207L104.975 250.767ZM113.574 253.098C114.18 253.098 114.682 252.922 115.078 252.571C115.479 252.22 115.68 251.781 115.68 251.252V250.575L113.697 250.705C113.141 250.742 112.733 250.858 112.474 251.054C112.214 251.25 112.084 251.535 112.084 251.908C112.084 252.277 112.223 252.569 112.501 252.783C112.779 252.993 113.137 253.098 113.574 253.098ZM113.355 254.13C112.631 254.13 112.034 253.932 111.564 253.535C111.1 253.134 110.867 252.601 110.867 251.936C110.867 251.279 111.1 250.764 111.564 250.391C112.029 250.017 112.692 249.805 113.554 249.755L115.68 249.625V248.955C115.68 248.499 115.538 248.151 115.256 247.909C114.973 247.668 114.559 247.547 114.012 247.547C113.57 247.547 113.203 247.627 112.911 247.786C112.619 247.946 112.433 248.171 112.351 248.463H111.161C111.239 247.875 111.542 247.401 112.07 247.041C112.604 246.681 113.264 246.501 114.053 246.501C114.946 246.501 115.636 246.717 116.124 247.15C116.612 247.583 116.855 248.185 116.855 248.955V254H115.734V252.913H115.625C115.388 253.305 115.074 253.606 114.682 253.815C114.29 254.025 113.848 254.13 113.355 254.13ZM122.844 246.501C123.783 246.501 124.532 246.847 125.093 247.54C125.658 248.233 125.94 249.158 125.94 250.315C125.94 251.468 125.658 252.394 125.093 253.091C124.528 253.784 123.778 254.13 122.844 254.13C122.32 254.13 121.855 254.023 121.449 253.809C121.044 253.59 120.741 253.285 120.54 252.893H120.431V256.461H119.255V246.631H120.376V247.861H120.485C120.722 247.438 121.048 247.105 121.463 246.863C121.882 246.622 122.342 246.501 122.844 246.501ZM122.563 253.07C123.238 253.07 123.767 252.826 124.149 252.339C124.532 251.851 124.724 251.177 124.724 250.315C124.724 249.454 124.532 248.78 124.149 248.292C123.771 247.804 123.245 247.561 122.57 247.561C121.905 247.561 121.376 247.809 120.984 248.306C120.592 248.798 120.396 249.468 120.396 250.315C120.396 251.159 120.59 251.828 120.978 252.325C121.369 252.822 121.898 253.07 122.563 253.07ZM128.285 256.673C128.098 256.673 127.923 256.659 127.759 256.632V255.627C127.877 255.65 128.041 255.661 128.251 255.661C128.588 255.661 128.859 255.568 129.064 255.381C129.27 255.199 129.45 254.886 129.604 254.444L129.741 254.007L127.014 246.631H128.285L130.309 252.694H130.418L132.435 246.631H133.686L130.808 254.451C130.493 255.303 130.156 255.887 129.796 256.201C129.44 256.516 128.937 256.673 128.285 256.673ZM141.219 248.887H140.029C139.929 248.499 139.713 248.183 139.38 247.937C139.052 247.686 138.635 247.561 138.129 247.561C137.468 247.561 136.942 247.807 136.55 248.299C136.162 248.791 135.969 249.454 135.969 250.288C135.969 251.136 136.165 251.812 136.557 252.318C136.949 252.82 137.473 253.07 138.129 253.07C138.626 253.07 139.038 252.959 139.366 252.735C139.699 252.512 139.92 252.193 140.029 251.778H141.219C141.109 252.476 140.784 253.043 140.241 253.48C139.699 253.913 138.997 254.13 138.136 254.13C137.101 254.13 136.279 253.784 135.668 253.091C135.057 252.394 134.752 251.459 134.752 250.288C134.752 249.14 135.057 248.221 135.668 247.533C136.279 246.845 137.099 246.501 138.129 246.501C138.99 246.501 139.692 246.727 140.234 247.178C140.781 247.629 141.109 248.199 141.219 248.887ZM145.648 249.98H144.261V253.016H145.648C146.132 253.016 146.517 252.879 146.804 252.605C147.095 252.327 147.241 251.958 147.241 251.498C147.241 251.038 147.095 250.671 146.804 250.397C146.517 250.119 146.132 249.98 145.648 249.98ZM143.085 254V246.631H144.261V248.996H145.648C146.492 248.996 147.164 249.222 147.665 249.673C148.166 250.124 148.417 250.732 148.417 251.498C148.417 252.264 148.166 252.872 147.665 253.323C147.164 253.774 146.492 254 145.648 254H143.085Z" fill="#ADAFC2"/>
<path d="M87.5635 287H86.3262V277.136H92.1777V278.257H87.5635V287ZM95.8828 280.54C95.2949 280.54 94.8118 280.738 94.4336 281.135C94.0553 281.531 93.8434 282.055 93.7979 282.707H97.8584C97.8447 282.055 97.6579 281.531 97.2979 281.135C96.9378 280.738 96.4661 280.54 95.8828 280.54ZM97.8242 285.093H99C98.8223 285.731 98.46 286.23 97.9131 286.59C97.3708 286.95 96.6986 287.13 95.8965 287.13C94.8757 287.13 94.0667 286.788 93.4697 286.104C92.8727 285.416 92.5742 284.489 92.5742 283.322C92.5742 282.16 92.875 281.233 93.4766 280.54C94.0781 279.847 94.8848 279.501 95.8965 279.501C96.89 279.501 97.6715 279.831 98.2412 280.492C98.8109 281.153 99.0957 282.058 99.0957 283.206V283.657H93.7979V283.712C93.8298 284.441 94.0348 285.02 94.4131 285.448C94.7959 285.877 95.2995 286.091 95.9238 286.091C96.8763 286.091 97.5098 285.758 97.8242 285.093ZM104.66 279.501C105.599 279.501 106.349 279.847 106.909 280.54C107.474 281.233 107.757 282.158 107.757 283.315C107.757 284.468 107.474 285.394 106.909 286.091C106.344 286.784 105.594 287.13 104.66 287.13C104.136 287.13 103.671 287.023 103.266 286.809C102.86 286.59 102.557 286.285 102.356 285.893H102.247V289.461H101.071V279.631H102.192V280.861H102.302C102.539 280.438 102.865 280.105 103.279 279.863C103.699 279.622 104.159 279.501 104.66 279.501ZM104.38 286.07C105.054 286.07 105.583 285.826 105.966 285.339C106.349 284.851 106.54 284.177 106.54 283.315C106.54 282.454 106.349 281.78 105.966 281.292C105.588 280.804 105.061 280.561 104.387 280.561C103.721 280.561 103.193 280.809 102.801 281.306C102.409 281.798 102.213 282.468 102.213 283.315C102.213 284.159 102.407 284.828 102.794 285.325C103.186 285.822 103.715 286.07 104.38 286.07ZM110.915 287H109.739V279.631H111.168L113.807 285.346H113.916L116.562 279.631H117.936V287H116.753V281.757H116.623L114.292 286.795H113.376L111.045 281.757H110.915V287ZM122.557 286.098C123.163 286.098 123.664 285.922 124.061 285.571C124.462 285.22 124.662 284.781 124.662 284.252V283.575L122.68 283.705C122.124 283.742 121.716 283.858 121.456 284.054C121.196 284.25 121.066 284.535 121.066 284.908C121.066 285.277 121.205 285.569 121.483 285.783C121.761 285.993 122.119 286.098 122.557 286.098ZM122.338 287.13C121.613 287.13 121.016 286.932 120.547 286.535C120.082 286.134 119.85 285.601 119.85 284.936C119.85 284.279 120.082 283.764 120.547 283.391C121.012 283.017 121.675 282.805 122.536 282.755L124.662 282.625V281.955C124.662 281.499 124.521 281.151 124.238 280.909C123.956 280.668 123.541 280.547 122.994 280.547C122.552 280.547 122.185 280.627 121.894 280.786C121.602 280.946 121.415 281.171 121.333 281.463H120.144C120.221 280.875 120.524 280.401 121.053 280.041C121.586 279.681 122.247 279.501 123.035 279.501C123.928 279.501 124.619 279.717 125.106 280.15C125.594 280.583 125.838 281.185 125.838 281.955V287H124.717V285.913H124.607C124.37 286.305 124.056 286.606 123.664 286.815C123.272 287.025 122.83 287.13 122.338 287.13ZM128.237 287V279.631H129.413V282.68H133.159V279.631H134.335V287H133.159V283.664H129.413V287H128.237ZM137.849 287H136.673V279.631H137.849V285.127H137.958L141.697 279.631H142.873V287H141.697V281.504H141.588L137.849 287ZM147.754 283.377H149.142V280.615H147.754C147.266 280.615 146.879 280.743 146.592 280.998C146.305 281.249 146.161 281.597 146.161 282.044C146.161 282.436 146.307 282.757 146.599 283.008C146.89 283.254 147.275 283.377 147.754 283.377ZM149.142 287V284.361H147.877L145.997 287H144.596L146.653 284.143C146.134 283.997 145.726 283.742 145.43 283.377C145.133 283.012 144.985 282.577 144.985 282.071C144.985 281.315 145.234 280.72 145.73 280.287C146.232 279.85 146.906 279.631 147.754 279.631H150.317V287H149.142Z" fill="#ADAFC2"/>
<path d="M90.2979 320.232C88.958 320.232 87.8962 319.77 87.1123 318.845C86.333 317.92 85.9434 316.662 85.9434 315.071C85.9434 313.481 86.333 312.223 87.1123 311.298C87.8916 310.368 88.9512 309.903 90.291 309.903C91.3301 309.903 92.2188 310.2 92.957 310.792C93.6953 311.384 94.1374 312.157 94.2832 313.109H93.0322C92.8682 312.471 92.54 311.968 92.0479 311.599C91.5557 311.225 90.9701 311.038 90.291 311.038C89.3431 311.038 88.5911 311.4 88.0352 312.125C87.4837 312.85 87.208 313.832 87.208 315.071C87.208 316.311 87.486 317.293 88.042 318.018C88.598 318.738 89.3499 319.098 90.2979 319.098C90.986 319.098 91.5739 318.934 92.0615 318.605C92.5537 318.273 92.8773 317.822 93.0322 317.252H94.2832C94.1191 318.159 93.6748 318.883 92.9502 319.426C92.2301 319.964 91.346 320.232 90.2979 320.232ZM96.6211 320V310.136H97.8516V318.893H101.42V310.136H102.65V318.893H106.219V310.136H107.449V320H96.6211ZM116.514 320L115.522 317.177H111.599L110.607 320H109.315L112.952 310.136H114.169L117.806 320H116.514ZM113.506 311.729L111.961 316.131H115.16L113.615 311.729H113.506Z" fill="#ADAFC2"/>
<path d="M88.2197 349.37C88.1833 349.976 88.1149 350.466 88.0146 350.84C87.9189 351.214 87.7572 351.537 87.5293 351.811V351.893H92.3145V344.243H88.541L88.2197 349.37ZM86.415 353V354.948H85.2734V351.893H86.0049C86.3467 351.71 86.5973 351.412 86.7568 350.997C86.9209 350.578 87.0234 350.026 87.0645 349.343L87.4404 343.136H93.5449V351.893H94.7754V354.948H93.6338V353H86.415ZM100.012 345.501C100.951 345.501 101.7 345.847 102.261 346.54C102.826 347.233 103.108 348.158 103.108 349.315C103.108 350.468 102.826 351.394 102.261 352.091C101.696 352.784 100.946 353.13 100.012 353.13C99.4876 353.13 99.0228 353.023 98.6172 352.809C98.2116 352.59 97.9085 352.285 97.708 351.893H97.5986V355.461H96.4229V345.631H97.5439V346.861H97.6533C97.8903 346.438 98.2161 346.105 98.6309 345.863C99.0501 345.622 99.5104 345.501 100.012 345.501ZM99.7314 352.07C100.406 352.07 100.935 351.826 101.317 351.339C101.7 350.851 101.892 350.177 101.892 349.315C101.892 348.454 101.7 347.78 101.317 347.292C100.939 346.804 100.413 346.561 99.7383 346.561C99.0729 346.561 98.5443 346.809 98.1523 347.306C97.7604 347.798 97.5645 348.468 97.5645 349.315C97.5645 350.159 97.7581 350.828 98.1455 351.325C98.5374 351.822 99.0661 352.07 99.7314 352.07ZM105.453 355.673C105.266 355.673 105.091 355.659 104.927 355.632V354.627C105.045 354.65 105.209 354.661 105.419 354.661C105.756 354.661 106.027 354.568 106.232 354.381C106.438 354.199 106.618 353.886 106.772 353.444L106.909 353.007L104.182 345.631H105.453L107.477 351.694H107.586L109.603 345.631H110.854L107.976 353.451C107.661 354.303 107.324 354.887 106.964 355.201C106.608 355.516 106.105 355.673 105.453 355.673ZM117.272 346.615H113.731V353H112.556V345.631H117.272V346.615ZM120.239 353H119.063V345.631H120.239V351.127H120.349L124.088 345.631H125.264V353H124.088V347.504H123.979L120.239 353ZM130.555 346.54C129.967 346.54 129.484 346.738 129.105 347.135C128.727 347.531 128.515 348.055 128.47 348.707H132.53C132.517 348.055 132.33 347.531 131.97 347.135C131.61 346.738 131.138 346.54 130.555 346.54ZM132.496 351.093H133.672C133.494 351.731 133.132 352.23 132.585 352.59C132.043 352.95 131.37 353.13 130.568 353.13C129.548 353.13 128.739 352.788 128.142 352.104C127.545 351.416 127.246 350.489 127.246 349.322C127.246 348.16 127.547 347.233 128.148 346.54C128.75 345.847 129.557 345.501 130.568 345.501C131.562 345.501 132.343 345.831 132.913 346.492C133.483 347.153 133.768 348.058 133.768 349.206V349.657H128.47V349.712C128.502 350.441 128.707 351.02 129.085 351.448C129.468 351.877 129.971 352.091 130.596 352.091C131.548 352.091 132.182 351.758 132.496 351.093Z" fill="#ADAFC2"/>
<path d="M368.354 188.232C367.42 188.232 366.648 187.97 366.037 187.446C365.426 186.918 365.094 186.227 365.039 185.375H366.249C366.304 185.908 366.525 186.339 366.912 186.667C367.304 186.991 367.789 187.152 368.368 187.152C369.029 187.152 369.56 186.945 369.961 186.53C370.367 186.116 370.569 185.571 370.569 184.896C370.569 184.222 370.367 183.675 369.961 183.256C369.56 182.832 369.036 182.62 368.389 182.62C367.942 182.62 367.541 182.718 367.186 182.914C366.83 183.105 366.552 183.377 366.352 183.728H365.196L365.736 178.136H371.239V179.236H366.7L366.42 182.401H366.529C367.008 181.841 367.703 181.561 368.614 181.561C369.553 181.561 370.319 181.868 370.911 182.483C371.504 183.099 371.8 183.892 371.8 184.862C371.8 185.865 371.481 186.678 370.843 187.303C370.205 187.923 369.375 188.232 368.354 188.232ZM377.022 188.232C376.088 188.232 375.316 187.97 374.705 187.446C374.094 186.918 373.762 186.227 373.707 185.375H374.917C374.972 185.908 375.193 186.339 375.58 186.667C375.972 186.991 376.457 187.152 377.036 187.152C377.697 187.152 378.228 186.945 378.629 186.53C379.035 186.116 379.237 185.571 379.237 184.896C379.237 184.222 379.035 183.675 378.629 183.256C378.228 182.832 377.704 182.62 377.057 182.62C376.61 182.62 376.209 182.718 375.854 182.914C375.498 183.105 375.22 183.377 375.02 183.728H373.864L374.404 178.136H379.907V179.236H375.368L375.088 182.401H375.197C375.676 181.841 376.371 181.561 377.282 181.561C378.221 181.561 378.987 181.868 379.579 182.483C380.172 183.099 380.468 183.892 380.468 184.862C380.468 185.865 380.149 186.678 379.511 187.303C378.873 187.923 378.043 188.232 377.022 188.232ZM382.936 188.068C382.694 188.068 382.484 187.982 382.307 187.809C382.133 187.631 382.047 187.421 382.047 187.18C382.047 186.934 382.133 186.724 382.307 186.551C382.484 186.378 382.694 186.291 382.936 186.291C383.182 186.291 383.391 186.378 383.564 186.551C383.738 186.724 383.824 186.934 383.824 187.18C383.824 187.421 383.738 187.631 383.564 187.809C383.391 187.982 383.182 188.068 382.936 188.068ZM385.868 188L390.318 179.346V179.236H385.226V178.136H391.549V179.277L387.16 188H385.868ZM397.168 188V185.956H392.362V184.835C393.265 183.231 394.673 180.998 396.587 178.136H398.371V184.855H399.772V185.956H398.371V188H397.168ZM393.62 184.78V184.862H397.175V179.277H397.093C396.026 180.827 394.869 182.661 393.62 184.78ZM408.933 187.296C409.233 187.296 409.475 187.159 409.657 186.886C409.844 186.608 409.938 186.243 409.938 185.792C409.938 185.332 409.846 184.967 409.664 184.698C409.486 184.429 409.243 184.295 408.933 184.295C408.627 184.295 408.381 184.432 408.194 184.705C408.012 184.974 407.921 185.336 407.921 185.792C407.921 186.248 408.012 186.612 408.194 186.886C408.381 187.159 408.627 187.296 408.933 187.296ZM410.443 187.508C410.051 187.95 409.548 188.171 408.933 188.171C408.317 188.171 407.812 187.95 407.415 187.508C407.023 187.061 406.827 186.489 406.827 185.792C406.827 185.099 407.023 184.532 407.415 184.09C407.812 183.643 408.317 183.42 408.933 183.42C409.548 183.42 410.051 183.641 410.443 184.083C410.835 184.525 411.031 185.095 411.031 185.792C411.031 186.489 410.835 187.061 410.443 187.508ZM404.735 182.053C404.343 182.495 403.84 182.716 403.225 182.716C402.609 182.716 402.104 182.495 401.707 182.053C401.315 181.606 401.119 181.034 401.119 180.337C401.119 179.644 401.315 179.077 401.707 178.635C402.104 178.188 402.609 177.965 403.225 177.965C403.84 177.965 404.343 178.186 404.735 178.628C405.127 179.07 405.323 179.64 405.323 180.337C405.323 181.034 405.127 181.606 404.735 182.053ZM403.115 188H401.857L405.624 182.859L409.083 178.136H410.327L406.499 183.372L403.115 188ZM403.225 181.841C403.525 181.841 403.767 181.704 403.949 181.431C404.136 181.153 404.229 180.788 404.229 180.337C404.229 179.877 404.138 179.512 403.956 179.243C403.778 178.974 403.535 178.84 403.225 178.84C402.919 178.84 402.673 178.977 402.486 179.25C402.304 179.519 402.213 179.881 402.213 180.337C402.213 180.793 402.304 181.157 402.486 181.431C402.673 181.704 402.919 181.841 403.225 181.841Z" fill="white"/>
<path d="M365.039 213.911C365.039 213.036 365.335 212.316 365.928 211.751C366.525 211.186 367.281 210.903 368.197 210.903C369.081 210.903 369.822 211.17 370.419 211.703C371.021 212.232 371.321 212.888 371.321 213.672C371.321 214.187 371.175 214.693 370.884 215.189C370.592 215.686 370.043 216.368 369.236 217.233L366.864 219.783V219.893H371.485V221H365.101V220.152L368.512 216.427C369.145 215.739 369.567 215.215 369.776 214.854C369.986 214.494 370.091 214.116 370.091 213.72C370.091 213.228 369.904 212.815 369.53 212.482C369.161 212.145 368.705 211.977 368.163 211.977C367.584 211.977 367.117 212.154 366.762 212.51C366.406 212.865 366.229 213.332 366.229 213.911V213.918H365.039V213.911ZM373.933 221L378.383 212.346V212.236H373.29V211.136H379.613V212.277L375.225 221H373.933ZM380.543 221.068C380.301 221.068 380.092 220.982 379.914 220.809C379.741 220.631 379.654 220.421 379.654 220.18C379.654 219.934 379.741 219.724 379.914 219.551C380.092 219.378 380.301 219.291 380.543 219.291C380.789 219.291 380.999 219.378 381.172 219.551C381.345 219.724 381.432 219.934 381.432 220.18C381.432 220.421 381.345 220.631 381.172 220.809C380.999 220.982 380.789 221.068 380.543 221.068ZM389.238 220.433C388.577 220.966 387.725 221.232 386.682 221.232C385.638 221.232 384.784 220.966 384.118 220.433C383.457 219.895 383.127 219.204 383.127 218.361C383.127 217.719 383.314 217.167 383.688 216.707C384.061 216.247 384.558 215.96 385.178 215.846V215.736C384.676 215.6 384.275 215.333 383.975 214.937C383.678 214.54 383.53 214.073 383.53 213.535C383.53 212.765 383.824 212.134 384.412 211.642C385.005 211.149 385.761 210.903 386.682 210.903C387.602 210.903 388.356 211.149 388.944 211.642C389.537 212.134 389.833 212.765 389.833 213.535C389.833 214.077 389.685 214.545 389.389 214.937C389.097 215.328 388.696 215.595 388.186 215.736V215.846C388.805 215.96 389.302 216.247 389.676 216.707C390.049 217.167 390.236 217.719 390.236 218.361C390.236 219.204 389.904 219.895 389.238 220.433ZM385.014 219.653C385.442 220.004 385.998 220.18 386.682 220.18C387.365 220.18 387.921 220.004 388.35 219.653C388.778 219.298 388.992 218.838 388.992 218.272C388.992 217.707 388.778 217.249 388.35 216.898C387.921 216.543 387.365 216.365 386.682 216.365C385.998 216.365 385.442 216.543 385.014 216.898C384.585 217.249 384.371 217.707 384.371 218.272C384.371 218.838 384.585 219.298 385.014 219.653ZM385.273 214.868C385.629 215.174 386.098 215.326 386.682 215.326C387.265 215.326 387.734 215.174 388.09 214.868C388.445 214.558 388.623 214.153 388.623 213.651C388.623 213.141 388.445 212.731 388.09 212.421C387.734 212.111 387.265 211.956 386.682 211.956C386.098 211.956 385.629 212.111 385.273 212.421C384.918 212.731 384.74 213.141 384.74 213.651C384.74 214.153 384.918 214.558 385.273 214.868ZM392.622 221L397.072 212.346V212.236H391.979V211.136H398.303V212.277L393.914 221H392.622ZM407.497 220.296C407.798 220.296 408.039 220.159 408.222 219.886C408.409 219.608 408.502 219.243 408.502 218.792C408.502 218.332 408.411 217.967 408.229 217.698C408.051 217.429 407.807 217.295 407.497 217.295C407.192 217.295 406.946 217.432 406.759 217.705C406.576 217.974 406.485 218.336 406.485 218.792C406.485 219.248 406.576 219.612 406.759 219.886C406.946 220.159 407.192 220.296 407.497 220.296ZM409.008 220.508C408.616 220.95 408.112 221.171 407.497 221.171C406.882 221.171 406.376 220.95 405.979 220.508C405.588 220.061 405.392 219.489 405.392 218.792C405.392 218.099 405.588 217.532 405.979 217.09C406.376 216.643 406.882 216.42 407.497 216.42C408.112 216.42 408.616 216.641 409.008 217.083C409.4 217.525 409.596 218.095 409.596 218.792C409.596 219.489 409.4 220.061 409.008 220.508ZM403.3 215.053C402.908 215.495 402.404 215.716 401.789 215.716C401.174 215.716 400.668 215.495 400.271 215.053C399.88 214.606 399.684 214.034 399.684 213.337C399.684 212.644 399.88 212.077 400.271 211.635C400.668 211.188 401.174 210.965 401.789 210.965C402.404 210.965 402.908 211.186 403.3 211.628C403.692 212.07 403.888 212.64 403.888 213.337C403.888 214.034 403.692 214.606 403.3 215.053ZM401.68 221H400.422L404.188 215.859L407.647 211.136H408.892L405.063 216.372L401.68 221ZM401.789 214.841C402.09 214.841 402.331 214.704 402.514 214.431C402.701 214.153 402.794 213.788 402.794 213.337C402.794 212.877 402.703 212.512 402.521 212.243C402.343 211.974 402.099 211.84 401.789 211.84C401.484 211.84 401.238 211.977 401.051 212.25C400.868 212.519 400.777 212.881 400.777 213.337C400.777 213.793 400.868 214.157 401.051 214.431C401.238 214.704 401.484 214.841 401.789 214.841Z" fill="white"/>
<path d="M371.027 253.433C370.367 253.966 369.514 254.232 368.471 254.232C367.427 254.232 366.573 253.966 365.907 253.433C365.246 252.895 364.916 252.204 364.916 251.361C364.916 250.719 365.103 250.167 365.477 249.707C365.85 249.247 366.347 248.96 366.967 248.846V248.736C366.465 248.6 366.064 248.333 365.764 247.937C365.467 247.54 365.319 247.073 365.319 246.535C365.319 245.765 365.613 245.134 366.201 244.642C366.794 244.149 367.55 243.903 368.471 243.903C369.391 243.903 370.146 244.149 370.733 244.642C371.326 245.134 371.622 245.765 371.622 246.535C371.622 247.077 371.474 247.545 371.178 247.937C370.886 248.328 370.485 248.595 369.975 248.736V248.846C370.594 248.96 371.091 249.247 371.465 249.707C371.839 250.167 372.025 250.719 372.025 251.361C372.025 252.204 371.693 252.895 371.027 253.433ZM366.803 252.653C367.231 253.004 367.787 253.18 368.471 253.18C369.154 253.18 369.71 253.004 370.139 252.653C370.567 252.298 370.781 251.838 370.781 251.272C370.781 250.707 370.567 250.249 370.139 249.898C369.71 249.543 369.154 249.365 368.471 249.365C367.787 249.365 367.231 249.543 366.803 249.898C366.374 250.249 366.16 250.707 366.16 251.272C366.16 251.838 366.374 252.298 366.803 252.653ZM367.062 247.868C367.418 248.174 367.887 248.326 368.471 248.326C369.054 248.326 369.523 248.174 369.879 247.868C370.234 247.558 370.412 247.153 370.412 246.651C370.412 246.141 370.234 245.731 369.879 245.421C369.523 245.111 369.054 244.956 368.471 244.956C367.887 244.956 367.418 245.111 367.062 245.421C366.707 245.731 366.529 246.141 366.529 246.651C366.529 247.153 366.707 247.558 367.062 247.868ZM374.609 254.068C374.368 254.068 374.158 253.982 373.98 253.809C373.807 253.631 373.721 253.421 373.721 253.18C373.721 252.934 373.807 252.724 373.98 252.551C374.158 252.378 374.368 252.291 374.609 252.291C374.855 252.291 375.065 252.378 375.238 252.551C375.411 252.724 375.498 252.934 375.498 253.18C375.498 253.421 375.411 253.631 375.238 253.809C375.065 253.982 374.855 254.068 374.609 254.068ZM377.385 246.911C377.385 246.036 377.681 245.316 378.273 244.751C378.87 244.186 379.627 243.903 380.543 243.903C381.427 243.903 382.168 244.17 382.765 244.703C383.366 245.232 383.667 245.888 383.667 246.672C383.667 247.187 383.521 247.693 383.229 248.189C382.938 248.686 382.389 249.368 381.582 250.233L379.21 252.783V252.893H383.831V254H377.446V253.152L380.857 249.427C381.491 248.739 381.912 248.215 382.122 247.854C382.332 247.494 382.437 247.116 382.437 246.72C382.437 246.228 382.25 245.815 381.876 245.482C381.507 245.145 381.051 244.977 380.509 244.977C379.93 244.977 379.463 245.154 379.107 245.51C378.752 245.865 378.574 246.332 378.574 246.911V246.918H377.385V246.911ZM389.225 254.232C388.113 254.232 387.251 253.781 386.641 252.879C386.03 251.977 385.725 250.705 385.725 249.064C385.725 247.438 386.032 246.171 386.647 245.264C387.263 244.357 388.122 243.903 389.225 243.903C390.323 243.903 391.177 244.359 391.788 245.271C392.403 246.182 392.711 247.453 392.711 249.085C392.711 250.721 392.406 251.988 391.795 252.886C391.189 253.784 390.332 254.232 389.225 254.232ZM387.543 252.1C387.935 252.806 388.495 253.159 389.225 253.159C389.954 253.159 390.51 252.808 390.893 252.106C391.28 251.4 391.474 250.386 391.474 249.064C391.474 247.757 391.278 246.749 390.886 246.043C390.498 245.337 389.945 244.983 389.225 244.983C388.505 244.983 387.946 245.339 387.55 246.05C387.158 246.756 386.962 247.761 386.962 249.064C386.962 250.382 387.156 251.393 387.543 252.1ZM401.987 253.296C402.288 253.296 402.53 253.159 402.712 252.886C402.899 252.608 402.992 252.243 402.992 251.792C402.992 251.332 402.901 250.967 402.719 250.698C402.541 250.429 402.297 250.295 401.987 250.295C401.682 250.295 401.436 250.432 401.249 250.705C401.067 250.974 400.976 251.336 400.976 251.792C400.976 252.248 401.067 252.612 401.249 252.886C401.436 253.159 401.682 253.296 401.987 253.296ZM403.498 253.508C403.106 253.95 402.603 254.171 401.987 254.171C401.372 254.171 400.866 253.95 400.47 253.508C400.078 253.061 399.882 252.489 399.882 251.792C399.882 251.099 400.078 250.532 400.47 250.09C400.866 249.643 401.372 249.42 401.987 249.42C402.603 249.42 403.106 249.641 403.498 250.083C403.89 250.525 404.086 251.095 404.086 251.792C404.086 252.489 403.89 253.061 403.498 253.508ZM397.79 248.053C397.398 248.495 396.895 248.716 396.279 248.716C395.664 248.716 395.158 248.495 394.762 248.053C394.37 247.606 394.174 247.034 394.174 246.337C394.174 245.644 394.37 245.077 394.762 244.635C395.158 244.188 395.664 243.965 396.279 243.965C396.895 243.965 397.398 244.186 397.79 244.628C398.182 245.07 398.378 245.64 398.378 246.337C398.378 247.034 398.182 247.606 397.79 248.053ZM396.17 254H394.912L398.679 248.859L402.138 244.136H403.382L399.554 249.372L396.17 254ZM396.279 247.841C396.58 247.841 396.822 247.704 397.004 247.431C397.191 247.153 397.284 246.788 397.284 246.337C397.284 245.877 397.193 245.512 397.011 245.243C396.833 244.974 396.589 244.84 396.279 244.84C395.974 244.84 395.728 244.977 395.541 245.25C395.359 245.519 395.268 245.881 395.268 246.337C395.268 246.793 395.359 247.157 395.541 247.431C395.728 247.704 395.974 247.841 396.279 247.841Z" fill="white"/>
<path d="M367.459 287V278.503H367.35L364.841 280.321V279.022L367.466 277.136H368.689V287H367.459ZM372.271 287.068C372.03 287.068 371.82 286.982 371.643 286.809C371.469 286.631 371.383 286.421 371.383 286.18C371.383 285.934 371.469 285.724 371.643 285.551C371.82 285.378 372.03 285.291 372.271 285.291C372.518 285.291 372.727 285.378 372.9 285.551C373.074 285.724 373.16 285.934 373.16 286.18C373.16 286.421 373.074 286.631 372.9 286.809C372.727 286.982 372.518 287.068 372.271 287.068ZM378.253 287.226C377.51 287.226 376.863 287.034 376.312 286.651C375.76 286.264 375.329 285.708 375.02 284.983C374.701 284.236 374.541 283.32 374.541 282.235C374.541 280.54 374.871 279.228 375.532 278.298C376.193 277.368 377.127 276.903 378.335 276.903C379.174 276.903 379.882 277.136 380.461 277.601C381.044 278.061 381.413 278.688 381.568 279.48H380.304C380.172 279.02 379.928 278.658 379.572 278.394C379.221 278.129 378.804 277.997 378.321 277.997C377.519 277.997 376.895 278.343 376.448 279.036C376.006 279.729 375.769 280.731 375.737 282.044H375.847C376.088 281.565 376.439 281.194 376.899 280.93C377.36 280.661 377.884 280.526 378.472 280.526C379.41 280.526 380.185 280.839 380.796 281.463C381.407 282.083 381.712 282.871 381.712 283.828C381.712 284.822 381.388 285.637 380.741 286.275C380.094 286.909 379.265 287.226 378.253 287.226ZM376.646 285.482C377.075 285.924 377.606 286.146 378.239 286.146C378.873 286.146 379.401 285.929 379.825 285.496C380.254 285.059 380.468 284.516 380.468 283.869C380.468 283.195 380.26 282.648 379.846 282.229C379.436 281.805 378.905 281.593 378.253 281.593C377.601 281.593 377.063 281.802 376.64 282.222C376.22 282.641 376.011 283.176 376.011 283.828C376.011 284.489 376.223 285.04 376.646 285.482ZM388.199 287V284.956H383.394V283.835C384.296 282.231 385.704 279.998 387.618 277.136H389.402V283.855H390.804V284.956H389.402V287H388.199ZM384.651 283.78V283.862H388.206V278.277H388.124C387.058 279.827 385.9 281.661 384.651 283.78ZM399.964 286.296C400.265 286.296 400.506 286.159 400.688 285.886C400.875 285.608 400.969 285.243 400.969 284.792C400.969 284.332 400.878 283.967 400.695 283.698C400.518 283.429 400.274 283.295 399.964 283.295C399.659 283.295 399.412 283.432 399.226 283.705C399.043 283.974 398.952 284.336 398.952 284.792C398.952 285.248 399.043 285.612 399.226 285.886C399.412 286.159 399.659 286.296 399.964 286.296ZM401.475 286.508C401.083 286.95 400.579 287.171 399.964 287.171C399.349 287.171 398.843 286.95 398.446 286.508C398.054 286.061 397.858 285.489 397.858 284.792C397.858 284.099 398.054 283.532 398.446 283.09C398.843 282.643 399.349 282.42 399.964 282.42C400.579 282.42 401.083 282.641 401.475 283.083C401.867 283.525 402.062 284.095 402.062 284.792C402.062 285.489 401.867 286.061 401.475 286.508ZM395.767 281.053C395.375 281.495 394.871 281.716 394.256 281.716C393.641 281.716 393.135 281.495 392.738 281.053C392.346 280.606 392.15 280.034 392.15 279.337C392.15 278.644 392.346 278.077 392.738 277.635C393.135 277.188 393.641 276.965 394.256 276.965C394.871 276.965 395.375 277.186 395.767 277.628C396.159 278.07 396.354 278.64 396.354 279.337C396.354 280.034 396.159 280.606 395.767 281.053ZM394.146 287H392.889L396.655 281.859L400.114 277.136H401.358L397.53 282.372L394.146 287ZM394.256 280.841C394.557 280.841 394.798 280.704 394.98 280.431C395.167 280.153 395.261 279.788 395.261 279.337C395.261 278.877 395.17 278.512 394.987 278.243C394.81 277.974 394.566 277.84 394.256 277.84C393.951 277.84 393.704 277.977 393.518 278.25C393.335 278.519 393.244 278.881 393.244 279.337C393.244 279.793 393.335 280.157 393.518 280.431C393.704 280.704 393.951 280.841 394.256 280.841Z" fill="white"/>
<path d="M367.459 320V311.503H367.35L364.841 313.321V312.022L367.466 310.136H368.689V320H367.459ZM372.271 320.068C372.03 320.068 371.82 319.982 371.643 319.809C371.469 319.631 371.383 319.421 371.383 319.18C371.383 318.934 371.469 318.724 371.643 318.551C371.82 318.378 372.03 318.291 372.271 318.291C372.518 318.291 372.727 318.378 372.9 318.551C373.074 318.724 373.16 318.934 373.16 319.18C373.16 319.421 373.074 319.631 372.9 319.809C372.727 319.982 372.518 320.068 372.271 320.068ZM378.253 320.226C377.51 320.226 376.863 320.034 376.312 319.651C375.76 319.264 375.329 318.708 375.02 317.983C374.701 317.236 374.541 316.32 374.541 315.235C374.541 313.54 374.871 312.228 375.532 311.298C376.193 310.368 377.127 309.903 378.335 309.903C379.174 309.903 379.882 310.136 380.461 310.601C381.044 311.061 381.413 311.688 381.568 312.48H380.304C380.172 312.02 379.928 311.658 379.572 311.394C379.221 311.129 378.804 310.997 378.321 310.997C377.519 310.997 376.895 311.343 376.448 312.036C376.006 312.729 375.769 313.731 375.737 315.044H375.847C376.088 314.565 376.439 314.194 376.899 313.93C377.36 313.661 377.884 313.526 378.472 313.526C379.41 313.526 380.185 313.839 380.796 314.463C381.407 315.083 381.712 315.871 381.712 316.828C381.712 317.822 381.388 318.637 380.741 319.275C380.094 319.909 379.265 320.226 378.253 320.226ZM376.646 318.482C377.075 318.924 377.606 319.146 378.239 319.146C378.873 319.146 379.401 318.929 379.825 318.496C380.254 318.059 380.468 317.516 380.468 316.869C380.468 316.195 380.26 315.648 379.846 315.229C379.436 314.805 378.905 314.593 378.253 314.593C377.601 314.593 377.063 314.802 376.64 315.222C376.22 315.641 376.011 316.176 376.011 316.828C376.011 317.489 376.223 318.04 376.646 318.482ZM388.199 320V317.956H383.394V316.835C384.296 315.231 385.704 312.998 387.618 310.136H389.402V316.855H390.804V317.956H389.402V320H388.199ZM384.651 316.78V316.862H388.206V311.277H388.124C387.058 312.827 385.9 314.661 384.651 316.78ZM399.964 319.296C400.265 319.296 400.506 319.159 400.688 318.886C400.875 318.608 400.969 318.243 400.969 317.792C400.969 317.332 400.878 316.967 400.695 316.698C400.518 316.429 400.274 316.295 399.964 316.295C399.659 316.295 399.412 316.432 399.226 316.705C399.043 316.974 398.952 317.336 398.952 317.792C398.952 318.248 399.043 318.612 399.226 318.886C399.412 319.159 399.659 319.296 399.964 319.296ZM401.475 319.508C401.083 319.95 400.579 320.171 399.964 320.171C399.349 320.171 398.843 319.95 398.446 319.508C398.054 319.061 397.858 318.489 397.858 317.792C397.858 317.099 398.054 316.532 398.446 316.09C398.843 315.643 399.349 315.42 399.964 315.42C400.579 315.42 401.083 315.641 401.475 316.083C401.867 316.525 402.062 317.095 402.062 317.792C402.062 318.489 401.867 319.061 401.475 319.508ZM395.767 314.053C395.375 314.495 394.871 314.716 394.256 314.716C393.641 314.716 393.135 314.495 392.738 314.053C392.346 313.606 392.15 313.034 392.15 312.337C392.15 311.644 392.346 311.077 392.738 310.635C393.135 310.188 393.641 309.965 394.256 309.965C394.871 309.965 395.375 310.186 395.767 310.628C396.159 311.07 396.354 311.64 396.354 312.337C396.354 313.034 396.159 313.606 395.767 314.053ZM394.146 320H392.889L396.655 314.859L400.114 310.136H401.358L397.53 315.372L394.146 320ZM394.256 313.841C394.557 313.841 394.798 313.704 394.98 313.431C395.167 313.153 395.261 312.788 395.261 312.337C395.261 311.877 395.17 311.512 394.987 311.243C394.81 310.974 394.566 310.84 394.256 310.84C393.951 310.84 393.704 310.977 393.518 311.25C393.335 311.519 393.244 311.881 393.244 312.337C393.244 312.793 393.335 313.157 393.518 313.431C393.704 313.704 393.951 313.841 394.256 313.841Z" fill="white"/>
<path d="M369.605 353V350.956H364.8V349.835C365.702 348.231 367.11 345.998 369.024 343.136H370.809V349.855H372.21V350.956H370.809V353H369.605ZM366.058 349.78V349.862H369.612V344.277H369.53C368.464 345.827 367.306 347.661 366.058 349.78ZM374.678 353.068C374.436 353.068 374.227 352.982 374.049 352.809C373.876 352.631 373.789 352.421 373.789 352.18C373.789 351.934 373.876 351.724 374.049 351.551C374.227 351.378 374.436 351.291 374.678 351.291C374.924 351.291 375.133 351.378 375.307 351.551C375.48 351.724 375.566 351.934 375.566 352.18C375.566 352.421 375.48 352.631 375.307 352.809C375.133 352.982 374.924 353.068 374.678 353.068ZM380.529 353.226C379.691 353.226 378.98 352.995 378.396 352.535C377.818 352.07 377.451 351.441 377.296 350.648H378.561C378.693 351.109 378.934 351.471 379.285 351.735C379.641 352 380.06 352.132 380.543 352.132C381.345 352.132 381.967 351.785 382.409 351.093C382.856 350.4 383.095 349.397 383.127 348.085H383.072H383.045H383.018C382.776 348.563 382.425 348.937 381.965 349.206C381.505 349.47 380.98 349.603 380.393 349.603C379.454 349.603 378.679 349.293 378.068 348.673C377.458 348.049 377.152 347.258 377.152 346.301C377.152 345.307 377.476 344.494 378.123 343.86C378.77 343.222 379.6 342.903 380.611 342.903C381.35 342.903 381.997 343.095 382.553 343.478C383.109 343.86 383.539 344.416 383.845 345.146C384.164 345.893 384.323 346.809 384.323 347.894C384.323 349.589 383.993 350.901 383.332 351.831C382.671 352.761 381.737 353.226 380.529 353.226ZM379.012 347.907C379.426 348.326 379.96 348.536 380.611 348.536C381.263 348.536 381.799 348.326 382.218 347.907C382.642 347.488 382.854 346.952 382.854 346.301C382.854 345.64 382.639 345.089 382.211 344.646C381.787 344.204 381.258 343.983 380.625 343.983C379.992 343.983 379.461 344.202 379.032 344.64C378.608 345.073 378.396 345.613 378.396 346.26C378.396 346.934 378.602 347.483 379.012 347.907ZM386.244 345.911C386.244 345.036 386.54 344.316 387.133 343.751C387.73 343.186 388.486 342.903 389.402 342.903C390.286 342.903 391.027 343.17 391.624 343.703C392.226 344.232 392.526 344.888 392.526 345.672C392.526 346.187 392.381 346.693 392.089 347.189C391.797 347.686 391.248 348.368 390.441 349.233L388.069 351.783V351.893H392.69V353H386.306V352.152L389.717 348.427C390.35 347.739 390.772 347.215 390.981 346.854C391.191 346.494 391.296 346.116 391.296 345.72C391.296 345.228 391.109 344.815 390.735 344.482C390.366 344.145 389.91 343.977 389.368 343.977C388.789 343.977 388.322 344.154 387.967 344.51C387.611 344.865 387.434 345.332 387.434 345.911V345.918H386.244V345.911ZM402.028 352.296C402.329 352.296 402.571 352.159 402.753 351.886C402.94 351.608 403.033 351.243 403.033 350.792C403.033 350.332 402.942 349.967 402.76 349.698C402.582 349.429 402.338 349.295 402.028 349.295C401.723 349.295 401.477 349.432 401.29 349.705C401.108 349.974 401.017 350.336 401.017 350.792C401.017 351.248 401.108 351.612 401.29 351.886C401.477 352.159 401.723 352.296 402.028 352.296ZM403.539 352.508C403.147 352.95 402.644 353.171 402.028 353.171C401.413 353.171 400.907 352.95 400.511 352.508C400.119 352.061 399.923 351.489 399.923 350.792C399.923 350.099 400.119 349.532 400.511 349.09C400.907 348.643 401.413 348.42 402.028 348.42C402.644 348.42 403.147 348.641 403.539 349.083C403.931 349.525 404.127 350.095 404.127 350.792C404.127 351.489 403.931 352.061 403.539 352.508ZM397.831 347.053C397.439 347.495 396.936 347.716 396.32 347.716C395.705 347.716 395.199 347.495 394.803 347.053C394.411 346.606 394.215 346.034 394.215 345.337C394.215 344.644 394.411 344.077 394.803 343.635C395.199 343.188 395.705 342.965 396.32 342.965C396.936 342.965 397.439 343.186 397.831 343.628C398.223 344.07 398.419 344.64 398.419 345.337C398.419 346.034 398.223 346.606 397.831 347.053ZM396.211 353H394.953L398.72 347.859L402.179 343.136H403.423L399.595 348.372L396.211 353ZM396.32 346.841C396.621 346.841 396.863 346.704 397.045 346.431C397.232 346.153 397.325 345.788 397.325 345.337C397.325 344.877 397.234 344.512 397.052 344.243C396.874 343.974 396.63 343.84 396.32 343.84C396.015 343.84 395.769 343.977 395.582 344.25C395.4 344.519 395.309 344.881 395.309 345.337C395.309 345.793 395.4 346.157 395.582 346.431C395.769 346.704 396.015 346.841 396.32 346.841Z" fill="white"/>
<path d="M366.837 136.408H367.131L371.027 132.136H372.839L368.437 136.921L373.194 142H371.253L367.138 137.673H366.837V142H365.306V132.136H366.837V136.408ZM377.562 140.838C378.196 140.838 378.686 140.615 379.032 140.168C379.383 139.717 379.559 139.086 379.559 138.274C379.559 137.468 379.383 136.841 379.032 136.395C378.686 135.943 378.196 135.718 377.562 135.718C376.924 135.718 376.432 135.941 376.086 136.388C375.74 136.834 375.566 137.463 375.566 138.274C375.566 139.09 375.74 139.721 376.086 140.168C376.432 140.615 376.924 140.838 377.562 140.838ZM377.562 142.144C376.469 142.144 375.61 141.799 374.985 141.111C374.361 140.423 374.049 139.478 374.049 138.274C374.049 137.076 374.361 136.132 374.985 135.444C375.614 134.756 376.473 134.412 377.562 134.412C378.647 134.412 379.502 134.756 380.126 135.444C380.755 136.132 381.069 137.076 381.069 138.274C381.069 139.478 380.757 140.423 380.133 141.111C379.508 141.799 378.652 142.144 377.562 142.144ZM384.945 138.596C384.909 139.156 384.845 139.639 384.754 140.045C384.663 140.446 384.528 140.806 384.351 141.125C384.177 141.439 383.947 141.676 383.66 141.836C383.373 141.995 383.029 142.075 382.628 142.075C382.432 142.075 382.263 142.048 382.122 141.993V140.619C382.245 140.656 382.377 140.674 382.519 140.674C382.86 140.674 383.111 140.489 383.271 140.12C383.435 139.751 383.542 139.218 383.592 138.521L383.852 134.556H388.979V142H387.509V135.793H385.15L384.945 138.596ZM392.677 142H391.221V134.556H392.677V139.676H392.793L396.286 134.556H397.742V142H396.286V136.853H396.17L392.677 142ZM405.966 142H404.496V138.732H404.38C403.869 139.234 403.218 139.484 402.425 139.484C401.627 139.484 400.998 139.241 400.538 138.753C400.078 138.261 399.848 137.602 399.848 136.777V134.556H401.317V136.647C401.317 137.112 401.44 137.479 401.687 137.748C401.933 138.012 402.272 138.145 402.705 138.145C402.956 138.145 403.188 138.115 403.402 138.056C403.621 137.992 403.801 137.912 403.942 137.816C404.084 137.721 404.198 137.632 404.284 137.55C404.371 137.463 404.441 137.379 404.496 137.297V134.556H405.966V142ZM412.604 136.189C412.275 135.839 411.84 135.663 411.298 135.663C410.756 135.663 410.309 135.839 409.958 136.189C409.607 136.54 409.411 137.007 409.37 137.591H413.13C413.112 137.003 412.936 136.536 412.604 136.189ZM413.123 139.99H414.538C414.369 140.66 414 141.187 413.431 141.569C412.866 141.952 412.159 142.144 411.312 142.144C410.245 142.144 409.404 141.802 408.789 141.118C408.178 140.43 407.873 139.491 407.873 138.302C407.873 137.112 408.183 136.167 408.803 135.465C409.423 134.763 410.257 134.412 411.305 134.412C412.339 134.412 413.15 134.745 413.738 135.41C414.331 136.076 414.627 136.994 414.627 138.165V138.678H409.37V138.76C409.393 139.416 409.582 139.936 409.938 140.318C410.293 140.701 410.765 140.893 411.353 140.893C412.25 140.893 412.84 140.592 413.123 139.99ZM422.857 136.989H421.429C421.338 136.611 421.139 136.306 420.834 136.073C420.533 135.841 420.146 135.725 419.672 135.725C419.057 135.725 418.571 135.948 418.216 136.395C417.865 136.841 417.689 137.461 417.689 138.254C417.689 139.056 417.865 139.687 418.216 140.147C418.571 140.603 419.057 140.831 419.672 140.831C420.141 140.831 420.526 140.726 420.827 140.517C421.132 140.307 421.333 140.004 421.429 139.607H422.857C422.762 140.373 422.434 140.988 421.873 141.453C421.312 141.913 420.581 142.144 419.679 142.144C418.594 142.144 417.74 141.799 417.115 141.111C416.495 140.419 416.186 139.466 416.186 138.254C416.186 137.06 416.495 136.121 417.115 135.438C417.735 134.754 418.587 134.412 419.672 134.412C420.579 134.412 421.31 134.649 421.866 135.123C422.427 135.597 422.757 136.219 422.857 136.989ZM429.905 134.556V135.793H427.561V142H426.091V135.793H423.746V134.556H429.905ZM434.656 135.684H433.009V137.611H434.492C435.367 137.611 435.805 137.288 435.805 136.641C435.805 136.34 435.707 136.105 435.511 135.937C435.319 135.768 435.035 135.684 434.656 135.684ZM434.595 138.691H433.009V140.872H434.779C435.212 140.872 435.543 140.779 435.771 140.592C435.998 140.405 436.112 140.136 436.112 139.785C436.112 139.056 435.606 138.691 434.595 138.691ZM431.553 142V134.556H434.937C435.661 134.556 436.226 134.727 436.632 135.068C437.042 135.406 437.247 135.866 437.247 136.449C437.247 136.827 437.126 137.167 436.885 137.468C436.648 137.769 436.349 137.953 435.989 138.021V138.138C436.468 138.192 436.853 138.379 437.145 138.698C437.436 139.013 437.582 139.398 437.582 139.854C437.582 140.51 437.35 141.032 436.885 141.419C436.42 141.806 435.782 142 434.971 142H431.553ZM442.641 140.838C443.274 140.838 443.764 140.615 444.11 140.168C444.461 139.717 444.637 139.086 444.637 138.274C444.637 137.468 444.461 136.841 444.11 136.395C443.764 135.943 443.274 135.718 442.641 135.718C442.003 135.718 441.51 135.941 441.164 136.388C440.818 136.834 440.645 137.463 440.645 138.274C440.645 139.09 440.818 139.721 441.164 140.168C441.51 140.615 442.003 140.838 442.641 140.838ZM442.641 142.144C441.547 142.144 440.688 141.799 440.063 141.111C439.439 140.423 439.127 139.478 439.127 138.274C439.127 137.076 439.439 136.132 440.063 135.444C440.692 134.756 441.551 134.412 442.641 134.412C443.725 134.412 444.58 134.756 445.204 135.444C445.833 136.132 446.147 137.076 446.147 138.274C446.147 139.478 445.835 140.423 445.211 141.111C444.587 141.799 443.73 142.144 442.641 142.144Z" fill="#ADAFC2"/>
<circle cx="74" cy="183" r="4" fill="#8D68F5"/>
<circle cx="74" cy="216" r="4" fill="#68F58F"/>
<circle cx="74" cy="249" r="4" fill="#F5AC68"/>
<circle cx="74" cy="282" r="4" fill="#687FF5"/>
<circle cx="74" cy="315" r="4" fill="#F56868"/>
<circle cx="74" cy="348" r="4" fill="#F5EF68"/>
<path d="M278.977 407H275.212V397.84H278.894C279.753 397.84 280.426 398.046 280.913 398.456C281.403 398.862 281.649 399.419 281.649 400.125C281.649 400.604 281.494 401.033 281.186 401.414C280.877 401.791 280.496 402.017 280.043 402.093V402.201C280.661 402.265 281.158 402.5 281.535 402.906C281.916 403.308 282.106 403.807 282.106 404.404C282.106 405.212 281.829 405.847 281.274 406.308C280.72 406.769 279.954 407 278.977 407ZM276.634 399.046V401.719H278.323C278.949 401.719 279.423 401.607 279.745 401.382C280.07 401.154 280.233 400.822 280.233 400.386C280.233 399.963 280.085 399.635 279.789 399.402C279.497 399.165 279.089 399.046 278.564 399.046H276.634ZM276.634 405.794H278.691C279.33 405.794 279.817 405.667 280.151 405.413C280.485 405.159 280.652 404.789 280.652 404.302C280.652 403.824 280.479 403.462 280.132 403.217C279.785 402.967 279.277 402.842 278.608 402.842H276.634V405.794ZM287.482 399.973C288.363 399.973 289.061 400.295 289.577 400.938C290.093 401.577 290.352 402.444 290.352 403.541C290.352 404.637 290.093 405.506 289.577 406.149C289.065 406.793 288.371 407.114 287.495 407.114C287.004 407.114 286.573 407.013 286.2 406.81C285.828 406.602 285.551 406.317 285.369 405.953H285.261V409.241H283.896V400.087H285.21V401.23H285.312C285.519 400.836 285.815 400.53 286.2 400.31C286.585 400.085 287.013 399.973 287.482 399.973ZM287.095 405.889C287.675 405.889 288.128 405.682 288.454 405.267C288.784 404.848 288.949 404.273 288.949 403.541C288.949 402.808 288.784 402.235 288.454 401.82C288.128 401.406 287.677 401.198 287.102 401.198C286.526 401.198 286.071 401.41 285.737 401.833C285.403 402.252 285.235 402.823 285.235 403.547C285.235 404.266 285.403 404.838 285.737 405.261C286.071 405.68 286.524 405.889 287.095 405.889ZM296.191 401.604C295.887 401.279 295.483 401.116 294.979 401.116C294.475 401.116 294.061 401.279 293.735 401.604C293.409 401.93 293.227 402.364 293.189 402.906H296.68C296.663 402.36 296.5 401.926 296.191 401.604ZM296.674 405.134H297.988C297.831 405.756 297.488 406.245 296.959 406.6C296.435 406.956 295.779 407.133 294.992 407.133C294.001 407.133 293.221 406.816 292.649 406.181C292.082 405.542 291.799 404.67 291.799 403.566C291.799 402.461 292.087 401.583 292.662 400.932C293.238 400.28 294.012 399.954 294.985 399.954C295.946 399.954 296.699 400.263 297.245 400.881C297.795 401.499 298.07 402.351 298.07 403.439V403.915H293.189V403.991C293.21 404.601 293.386 405.083 293.716 405.438C294.046 405.794 294.484 405.972 295.03 405.972C295.863 405.972 296.411 405.692 296.674 405.134ZM301.162 407H299.835V400.087H301.549L303.777 405.032H303.885L306.119 400.087H307.782V407H306.456V402.233H306.335L304.31 406.721H303.307L301.282 402.233H301.162V407ZM312.384 403.534H313.622V401.236H312.384C311.97 401.236 311.639 401.342 311.394 401.554C311.153 401.765 311.032 402.053 311.032 402.417C311.032 402.747 311.155 403.016 311.4 403.223C311.65 403.431 311.978 403.534 312.384 403.534ZM313.622 407V404.632H312.594L310.918 407H309.331L311.216 404.385C310.738 404.249 310.361 404.008 310.086 403.661C309.816 403.31 309.68 402.897 309.68 402.423C309.68 401.708 309.919 401.141 310.397 400.722C310.876 400.299 311.515 400.087 312.314 400.087H314.968V407H313.622ZM321.969 407H320.617V400.087H321.969V404.842H322.077L325.321 400.087H326.673V407H325.321V402.22H325.213L321.969 407ZM336.861 401.236H333.674V407H332.31V400.087H336.861V401.236ZM342.072 399.973C342.952 399.973 343.651 400.295 344.167 400.938C344.683 401.577 344.941 402.444 344.941 403.541C344.941 404.637 344.683 405.506 344.167 406.149C343.655 406.793 342.961 407.114 342.085 407.114C341.594 407.114 341.162 407.013 340.79 406.81C340.418 406.602 340.14 406.317 339.958 405.953H339.851V409.241H338.486V400.087H339.8V401.23H339.901C340.109 400.836 340.405 400.53 340.79 400.31C341.175 400.085 341.603 399.973 342.072 399.973ZM341.685 405.889C342.265 405.889 342.718 405.682 343.043 405.267C343.374 404.848 343.539 404.273 343.539 403.541C343.539 402.808 343.374 402.235 343.043 401.82C342.718 401.406 342.267 401.198 341.691 401.198C341.116 401.198 340.661 401.41 340.327 401.833C339.992 402.252 339.825 402.823 339.825 403.547C339.825 404.266 339.992 404.838 340.327 405.261C340.661 405.68 341.114 405.889 341.685 405.889ZM348.979 405.965C349.491 405.965 349.916 405.821 350.254 405.534C350.597 405.246 350.769 404.886 350.769 404.455V403.877L349.08 403.985C348.606 404.014 348.257 404.112 348.033 404.277C347.808 404.442 347.696 404.677 347.696 404.981C347.696 405.286 347.815 405.527 348.052 405.705C348.289 405.879 348.598 405.965 348.979 405.965ZM348.629 407.114C347.952 407.114 347.398 406.926 346.966 406.549C346.539 406.168 346.325 405.667 346.325 405.045C346.325 404.427 346.547 403.943 346.992 403.591C347.436 403.236 348.071 403.033 348.896 402.982L350.769 402.874V402.277C350.769 401.909 350.648 401.628 350.407 401.433C350.166 401.234 349.814 401.135 349.353 401.135C348.972 401.135 348.655 401.202 348.401 401.338C348.151 401.469 347.988 401.657 347.912 401.903H346.592C346.66 401.31 346.949 400.839 347.461 400.487C347.978 400.132 348.629 399.954 349.417 399.954C350.28 399.954 350.946 400.159 351.416 400.57C351.89 400.976 352.127 401.545 352.127 402.277V407H350.813V406.029H350.705C350.498 406.376 350.212 406.645 349.848 406.835C349.488 407.021 349.082 407.114 348.629 407.114ZM354.26 407V400.087H355.625V402.855H358.862V400.087H360.227V407H358.862V404.004H355.625V407H354.26ZM363.661 407H362.309V400.087H363.661V404.842H363.769L367.012 400.087H368.364V407H367.012V402.22H366.904L363.661 407ZM377.372 408.809H376.108V407H370.446V400.087H371.811V405.851H374.928V400.087H376.292V405.851H377.372V408.809ZM384.894 407V400.087H386.258V407H384.894ZM381.377 403.35H380.165V405.851H381.377C381.787 405.851 382.115 405.737 382.361 405.508C382.611 405.28 382.735 404.977 382.735 404.601C382.735 404.224 382.611 403.921 382.361 403.693C382.115 403.464 381.787 403.35 381.377 403.35ZM378.8 407V400.087H380.165V402.208H381.479C382.278 402.208 382.915 402.423 383.389 402.855C383.863 403.287 384.1 403.868 384.1 404.601C384.1 405.333 383.863 405.917 383.389 406.353C382.915 406.784 382.278 407 381.479 407H378.8ZM397.779 402.347H396.453C396.368 401.996 396.184 401.712 395.9 401.497C395.621 401.281 395.261 401.173 394.821 401.173C394.25 401.173 393.799 401.38 393.469 401.795C393.143 402.21 392.98 402.785 392.98 403.521C392.98 404.266 393.143 404.852 393.469 405.28C393.799 405.703 394.25 405.915 394.821 405.915C395.257 405.915 395.615 405.817 395.894 405.623C396.178 405.428 396.364 405.146 396.453 404.778H397.779C397.69 405.489 397.386 406.061 396.865 406.492C396.345 406.92 395.666 407.133 394.828 407.133C393.82 407.133 393.027 406.814 392.447 406.175C391.872 405.532 391.584 404.647 391.584 403.521C391.584 402.413 391.872 401.541 392.447 400.906C393.023 400.271 393.814 399.954 394.821 399.954C395.663 399.954 396.343 400.174 396.859 400.614C397.379 401.054 397.686 401.632 397.779 402.347ZM399.938 409.514C399.667 409.514 399.478 409.503 399.373 409.482V408.308C399.47 408.325 399.618 408.333 399.817 408.333C400.143 408.333 400.403 408.257 400.598 408.104C400.792 407.956 400.949 407.709 401.067 407.362L401.169 407.025L398.668 400.087H400.153L401.886 405.578H401.994L403.721 400.087H405.168L402.591 407.286C402.295 408.128 401.954 408.71 401.569 409.031C401.188 409.353 400.644 409.514 399.938 409.514ZM411.725 400.087V401.236H409.548V407H408.183V401.236H406.006V400.087H411.725ZM415.959 405.921C416.547 405.921 417.002 405.714 417.324 405.299C417.65 404.88 417.812 404.294 417.812 403.541C417.812 402.792 417.65 402.21 417.324 401.795C417.002 401.376 416.547 401.167 415.959 401.167C415.367 401.167 414.91 401.374 414.588 401.789C414.266 402.203 414.105 402.787 414.105 403.541C414.105 404.298 414.266 404.884 414.588 405.299C414.91 405.714 415.367 405.921 415.959 405.921ZM415.959 407.133C414.943 407.133 414.146 406.814 413.566 406.175C412.986 405.536 412.696 404.658 412.696 403.541C412.696 402.428 412.986 401.552 413.566 400.913C414.15 400.274 414.948 399.954 415.959 399.954C416.966 399.954 417.76 400.274 418.339 400.913C418.923 401.552 419.215 402.428 419.215 403.541C419.215 404.658 418.925 405.536 418.346 406.175C417.766 406.814 416.97 407.133 415.959 407.133ZM422.351 402.893H422.656L425.15 400.087H426.756L423.779 403.299L426.883 407H425.182L422.662 403.979H422.351V407H420.986V400.087H422.351V402.893ZM434.837 405.921C435.425 405.921 435.88 405.714 436.202 405.299C436.528 404.88 436.69 404.294 436.69 403.541C436.69 402.792 436.528 402.21 436.202 401.795C435.88 401.376 435.425 401.167 434.837 401.167C434.244 401.167 433.787 401.374 433.466 401.789C433.144 402.203 432.983 402.787 432.983 403.541C432.983 404.298 433.144 404.884 433.466 405.299C433.787 405.714 434.244 405.921 434.837 405.921ZM434.837 407.133C433.821 407.133 433.024 406.814 432.444 406.175C431.864 405.536 431.574 404.658 431.574 403.541C431.574 402.428 431.864 401.552 432.444 400.913C433.028 400.274 433.826 399.954 434.837 399.954C435.844 399.954 436.638 400.274 437.217 400.913C437.801 401.552 438.093 402.428 438.093 403.541C438.093 404.658 437.803 405.536 437.224 406.175C436.644 406.814 435.848 407.133 434.837 407.133ZM444.403 407V401.236H441.229V407H439.864V400.087H445.768V407H444.403ZM451.442 399.973C452.323 399.973 453.021 400.295 453.537 400.938C454.053 401.577 454.312 402.444 454.312 403.541C454.312 404.637 454.053 405.506 453.537 406.149C453.025 406.793 452.331 407.114 451.455 407.114C450.964 407.114 450.533 407.013 450.16 406.81C449.788 406.602 449.511 406.317 449.329 405.953H449.221V409.241H447.856V400.087H449.17V401.23H449.271C449.479 400.836 449.775 400.53 450.16 400.31C450.545 400.085 450.973 399.973 451.442 399.973ZM451.055 405.889C451.635 405.889 452.088 405.682 452.414 405.267C452.744 404.848 452.909 404.273 452.909 403.541C452.909 402.808 452.744 402.235 452.414 401.82C452.088 401.406 451.637 401.198 451.062 401.198C450.486 401.198 450.031 401.41 449.697 401.833C449.362 402.252 449.195 402.823 449.195 403.547C449.195 404.266 449.362 404.838 449.697 405.261C450.031 405.68 450.484 405.889 451.055 405.889ZM460.151 401.604C459.847 401.279 459.443 401.116 458.939 401.116C458.435 401.116 458.021 401.279 457.695 401.604C457.369 401.93 457.187 402.364 457.149 402.906H460.64C460.623 402.36 460.46 401.926 460.151 401.604ZM460.634 405.134H461.948C461.791 405.756 461.448 406.245 460.919 406.6C460.395 406.956 459.739 407.133 458.952 407.133C457.961 407.133 457.181 406.816 456.609 406.181C456.042 405.542 455.759 404.67 455.759 403.566C455.759 402.461 456.047 401.583 456.622 400.932C457.198 400.28 457.972 399.954 458.945 399.954C459.906 399.954 460.659 400.263 461.205 400.881C461.755 401.499 462.03 402.351 462.03 403.439V403.915H457.149V403.991C457.17 404.601 457.346 405.083 457.676 405.438C458.006 405.794 458.444 405.972 458.99 405.972C459.823 405.972 460.371 405.692 460.634 405.134ZM468.207 405.851V401.236H465.775L465.585 403.839C465.513 404.706 465.333 405.341 465.045 405.743V405.851H468.207ZM464.246 408.809H462.976V405.851H463.535C463.992 405.572 464.258 404.878 464.334 403.769L464.588 400.087H469.565V405.851H470.644V408.809H469.375V407H464.246V408.809ZM476.097 401.604C475.792 401.279 475.388 401.116 474.884 401.116C474.381 401.116 473.966 401.279 473.64 401.604C473.314 401.93 473.132 402.364 473.094 402.906H476.585C476.569 402.36 476.406 401.926 476.097 401.604ZM476.579 405.134H477.893C477.736 405.756 477.394 406.245 476.865 406.6C476.34 406.956 475.684 407.133 474.897 407.133C473.907 407.133 473.126 406.816 472.555 406.181C471.988 405.542 471.704 404.67 471.704 403.566C471.704 402.461 471.992 401.583 472.567 400.932C473.143 400.28 473.917 399.954 474.891 399.954C475.851 399.954 476.604 400.263 477.15 400.881C477.701 401.499 477.976 402.351 477.976 403.439V403.915H473.094V403.991C473.115 404.601 473.291 405.083 473.621 405.438C473.951 405.794 474.389 405.972 474.935 405.972C475.769 405.972 476.317 405.692 476.579 405.134ZM481.594 403.839C481.56 404.359 481.501 404.808 481.416 405.185C481.331 405.557 481.207 405.891 481.042 406.188C480.881 406.479 480.667 406.7 480.4 406.848C480.134 406.996 479.814 407.07 479.442 407.07C479.26 407.07 479.103 407.044 478.972 406.994V405.718C479.086 405.752 479.209 405.769 479.34 405.769C479.658 405.769 479.89 405.597 480.039 405.254C480.191 404.912 480.29 404.417 480.337 403.769L480.578 400.087H485.339V407H483.974V401.236H481.784L481.594 403.839ZM491.496 401.604C491.191 401.279 490.787 401.116 490.284 401.116C489.78 401.116 489.365 401.279 489.04 401.604C488.714 401.93 488.532 402.364 488.494 402.906H491.985C491.968 402.36 491.805 401.926 491.496 401.604ZM491.979 405.134H493.292C493.136 405.756 492.793 406.245 492.264 406.6C491.739 406.956 491.083 407.133 490.296 407.133C489.306 407.133 488.525 406.816 487.954 406.181C487.387 405.542 487.104 404.67 487.104 403.566C487.104 402.461 487.391 401.583 487.967 400.932C488.542 400.28 489.317 399.954 490.29 399.954C491.251 399.954 492.004 400.263 492.55 400.881C493.1 401.499 493.375 402.351 493.375 403.439V403.915H488.494V403.991C488.515 404.601 488.69 405.083 489.021 405.438C489.351 405.794 489.789 405.972 490.334 405.972C491.168 405.972 491.716 405.692 491.979 405.134ZM495.14 407V400.087H496.504V402.855H499.742V400.087H501.106V407H499.742V404.004H496.504V407H495.14ZM509.333 407V400.087H510.698V407H509.333ZM505.816 403.35H504.604V405.851H505.816C506.227 405.851 506.555 405.737 506.8 405.508C507.05 405.28 507.175 404.977 507.175 404.601C507.175 404.224 507.05 403.921 506.8 403.693C506.555 403.464 506.227 403.35 505.816 403.35ZM503.239 407V400.087H504.604V402.208H505.918C506.718 402.208 507.355 402.423 507.829 402.855C508.303 403.287 508.54 403.868 508.54 404.601C508.54 405.333 508.303 405.917 507.829 406.353C507.355 406.784 506.718 407 505.918 407H503.239ZM519.223 401.135H517.693V402.925H519.07C519.883 402.925 520.289 402.624 520.289 402.023C520.289 401.744 520.198 401.526 520.016 401.37C519.838 401.213 519.574 401.135 519.223 401.135ZM519.166 403.928H517.693V405.953H519.337C519.739 405.953 520.046 405.866 520.257 405.692C520.469 405.519 520.575 405.269 520.575 404.943C520.575 404.266 520.105 403.928 519.166 403.928ZM516.341 407V400.087H519.483C520.156 400.087 520.681 400.246 521.057 400.563C521.438 400.877 521.628 401.304 521.628 401.846C521.628 402.197 521.516 402.512 521.292 402.792C521.072 403.071 520.795 403.242 520.46 403.306V403.414C520.905 403.464 521.262 403.638 521.533 403.934C521.804 404.226 521.939 404.584 521.939 405.007C521.939 405.616 521.724 406.101 521.292 406.46C520.86 406.82 520.268 407 519.515 407H516.341ZM535.219 403.375C535.219 404.548 534.859 405.483 534.14 406.181C533.424 406.875 532.466 407.222 531.264 407.222C529.965 407.222 528.935 406.791 528.173 405.927C527.411 405.064 527.03 403.894 527.03 402.417C527.03 400.957 527.413 399.793 528.179 398.926C528.945 398.054 529.969 397.618 531.251 397.618C532.292 397.618 533.164 397.893 533.867 398.443C534.569 398.989 534.999 399.726 535.155 400.652H533.727C533.549 400.098 533.249 399.675 532.826 399.383C532.403 399.091 531.878 398.945 531.251 398.945C530.405 398.945 529.732 399.258 529.233 399.884C528.734 400.506 528.484 401.346 528.484 402.404C528.484 403.483 528.734 404.336 529.233 404.962C529.736 405.584 530.42 405.896 531.283 405.896C532.032 405.896 532.642 405.686 533.111 405.267C533.581 404.848 533.818 404.3 533.822 403.623V403.426H531.461V402.233H535.219V403.375ZM538.5 407H537.18V397.84H538.843L541.757 404.797H541.865L544.785 397.84H546.448V407H545.127V400.386H545.039L542.354 406.733H541.274L538.589 400.386H538.5V407ZM552.491 407H551.069V399.135H548.187V397.84H555.366V399.135H552.491V407ZM563.567 408.758H562.323C561.777 408.077 561.354 407.252 561.054 406.283C560.757 405.309 560.609 404.279 560.609 403.191C560.609 402.108 560.749 401.147 561.028 400.31C561.308 399.467 561.76 398.646 562.387 397.847H563.586C563.125 398.384 562.746 399.152 562.45 400.151C562.158 401.15 562.012 402.163 562.012 403.191C562.012 404.182 562.135 405.121 562.38 406.01C562.63 406.894 563.026 407.81 563.567 408.758ZM566.786 407H565.465V397.84H567.128L570.042 404.797H570.15L573.07 397.84H574.733V407H573.413V400.386H573.324L570.639 406.733H569.56L566.875 400.386H566.786V407ZM576.599 404.537H578.008C578.068 404.973 578.294 405.32 578.688 405.578C579.085 405.832 579.591 405.959 580.205 405.959C580.776 405.959 581.248 405.828 581.62 405.565C581.997 405.299 582.185 404.962 582.185 404.556C582.185 404.209 582.045 403.926 581.766 403.706C581.491 403.481 581.049 403.297 580.439 403.153L579.259 402.868C578.429 402.673 577.82 402.37 577.431 401.96C577.041 401.549 576.847 401.008 576.847 400.335C576.847 399.518 577.151 398.862 577.761 398.367C578.374 397.868 579.181 397.618 580.179 397.618C581.11 397.618 581.882 397.864 582.496 398.354C583.11 398.845 583.438 399.476 583.48 400.246H582.096C582.028 399.823 581.821 399.489 581.474 399.243C581.131 398.998 580.693 398.875 580.16 398.875C579.597 398.875 579.145 399 578.802 399.25C578.459 399.499 578.288 399.829 578.288 400.24C578.288 400.566 578.417 400.83 578.675 401.033C578.937 401.236 579.367 401.408 579.963 401.547L580.973 401.795C581.912 402.015 582.589 402.328 583.004 402.734C583.419 403.136 583.626 403.682 583.626 404.372C583.626 405.248 583.309 405.942 582.674 406.454C582.039 406.966 581.18 407.222 580.097 407.222C579.081 407.222 578.256 406.979 577.621 406.492C576.991 406.006 576.65 405.354 576.599 404.537ZM586.92 407H585.499V397.84H586.92V402.131H587.022L590.812 397.84H592.494L588.952 401.82L592.798 407H591.021L587.949 402.842L586.92 403.991V407ZM604.319 403.928H597.718V402.684H604.319V403.928ZM608.325 402.887V401.712H609.436C609.926 401.712 610.326 401.577 610.635 401.306C610.944 401.035 611.099 400.684 611.099 400.252C611.099 399.825 610.948 399.484 610.648 399.23C610.347 398.972 609.948 398.843 609.448 398.843C608.949 398.843 608.545 398.972 608.236 399.23C607.931 399.489 607.76 399.844 607.722 400.297H606.37C606.416 399.467 606.719 398.814 607.277 398.335C607.836 397.857 608.574 397.618 609.493 397.618C610.343 397.618 611.056 397.851 611.632 398.316C612.212 398.778 612.501 399.353 612.501 400.043C612.501 400.58 612.353 401.04 612.057 401.42C611.765 401.801 611.367 402.049 610.864 402.163V402.271C611.486 402.343 611.977 402.58 612.336 402.982C612.696 403.38 612.876 403.885 612.876 404.499C612.876 405.011 612.73 405.474 612.438 405.889C612.146 406.304 611.742 406.63 611.226 406.867C610.714 407.104 610.144 407.222 609.518 407.222C608.557 407.222 607.772 406.975 607.163 406.479C606.558 405.984 606.234 405.328 606.192 404.512H607.557C607.603 404.956 607.802 405.309 608.153 405.572C608.509 405.834 608.964 405.965 609.518 405.965C610.077 405.965 610.534 405.821 610.889 405.534C611.245 405.246 611.422 404.876 611.422 404.423C611.422 403.949 611.249 403.574 610.902 403.299C610.555 403.024 610.081 402.887 609.48 402.887H608.325ZM615.079 405.807C614.897 405.62 614.806 405.379 614.806 405.083C614.806 404.787 614.897 404.546 615.079 404.359C615.265 404.173 615.506 404.08 615.802 404.08C616.094 404.08 616.331 404.173 616.513 404.359C616.695 404.546 616.786 404.787 616.786 405.083C616.786 405.379 616.695 405.62 616.513 405.807C616.331 405.993 616.094 406.086 615.802 406.086C615.506 406.086 615.265 405.993 615.079 405.807ZM615.079 400.97C614.897 400.784 614.806 400.542 614.806 400.246C614.806 399.95 614.897 399.709 615.079 399.522C615.265 399.336 615.506 399.243 615.802 399.243C616.094 399.243 616.331 399.336 616.513 399.522C616.695 399.709 616.786 399.95 616.786 400.246C616.786 400.542 616.695 400.784 616.513 400.97C616.331 401.156 616.094 401.249 615.802 401.249C615.506 401.249 615.265 401.156 615.079 400.97ZM622.093 407.222C621.022 407.222 620.188 406.801 619.592 405.959C618.999 405.117 618.703 403.934 618.703 402.411C618.703 400.9 619.001 399.723 619.598 398.881C620.195 398.039 621.026 397.618 622.093 397.618C623.151 397.618 623.978 398.041 624.575 398.888C625.171 399.73 625.47 400.908 625.47 402.423C625.47 403.943 625.174 405.123 624.581 405.965C623.989 406.803 623.159 407.222 622.093 407.222ZM620.646 405.058C620.984 405.671 621.466 405.978 622.093 405.978C622.719 405.978 623.199 405.673 623.534 405.064C623.868 404.45 624.035 403.566 624.035 402.411C624.035 401.268 623.866 400.392 623.527 399.783C623.189 399.169 622.711 398.862 622.093 398.862C621.475 398.862 620.995 399.169 620.652 399.783C620.309 400.396 620.138 401.272 620.138 402.411C620.138 403.562 620.307 404.444 620.646 405.058ZM630.535 407.222C629.465 407.222 628.631 406.801 628.034 405.959C627.442 405.117 627.146 403.934 627.146 402.411C627.146 400.9 627.444 399.723 628.041 398.881C628.637 398.039 629.469 397.618 630.535 397.618C631.593 397.618 632.42 398.041 633.017 398.888C633.614 399.73 633.912 400.908 633.912 402.423C633.912 403.943 633.616 405.123 633.023 405.965C632.431 406.803 631.602 407.222 630.535 407.222ZM629.088 405.058C629.426 405.671 629.909 405.978 630.535 405.978C631.161 405.978 631.642 405.673 631.976 405.064C632.31 404.45 632.478 403.566 632.478 402.411C632.478 401.268 632.308 400.392 631.97 399.783C631.631 399.169 631.153 398.862 630.535 398.862C629.917 398.862 629.437 399.169 629.094 399.783C628.751 400.396 628.58 401.272 628.58 402.411C628.58 403.562 628.749 404.444 629.088 405.058ZM635.486 408.758C636.028 407.81 636.422 406.894 636.667 406.01C636.917 405.121 637.042 404.182 637.042 403.191C637.042 402.159 636.893 401.143 636.597 400.145C636.305 399.146 635.929 398.38 635.467 397.847H636.68C637.306 398.646 637.757 399.465 638.032 400.303C638.311 401.141 638.451 402.104 638.451 403.191C638.451 404.275 638.3 405.301 638 406.27C637.704 407.239 637.283 408.069 636.737 408.758H635.486Z" fill="#6A6B79"/>
<path d="M305.996 64.2222C304.722 64.2222 303.715 63.7926 302.974 62.9336C302.234 62.0745 301.863 60.9045 301.863 59.4233C301.863 57.938 302.231 56.7658 302.968 55.9067C303.708 55.0477 304.715 54.6182 305.989 54.6182C306.996 54.6182 307.853 54.9144 308.56 55.5068C309.271 56.0951 309.684 56.8568 309.798 57.792H308.382C308.247 57.2292 307.963 56.7806 307.532 56.4463C307.104 56.112 306.59 55.9448 305.989 55.9448C305.168 55.9448 304.517 56.258 304.034 56.8843C303.556 57.5063 303.317 58.3527 303.317 59.4233C303.317 60.4897 303.556 61.3361 304.034 61.9624C304.517 62.5845 305.17 62.8955 305.996 62.8955C306.601 62.8955 307.117 62.7432 307.544 62.4385C307.976 62.1338 308.255 61.7233 308.382 61.207H309.798C309.671 62.1126 309.26 62.8426 308.566 63.397C307.872 63.9471 307.015 64.2222 305.996 64.2222ZM312.438 66.5137C312.168 66.5137 311.979 66.5031 311.874 66.4819V65.3076C311.971 65.3245 312.119 65.333 312.318 65.333C312.644 65.333 312.904 65.2568 313.099 65.1045C313.293 64.9564 313.45 64.7088 313.568 64.3618L313.67 64.0254L311.169 57.0874H312.654L314.387 62.5781H314.495L316.222 57.0874H317.669L315.092 64.2856C314.796 65.1278 314.455 65.7096 314.07 66.0312C313.689 66.3529 313.145 66.5137 312.438 66.5137ZM324.226 57.0874V58.2363H322.049V64H320.684V58.2363H318.507V57.0874H324.226ZM327.121 59.8931H327.425L329.92 57.0874H331.526L328.549 60.2993L331.653 64H329.952L327.432 60.9785H327.121V64H325.756V57.0874H327.121V59.8931ZM334.458 64H333.106V57.0874H334.458V61.8418H334.566L337.81 57.0874H339.162V64H337.81V59.2202H337.702L334.458 64Z" fill="#6A6B79"/>
<path d="M297 45H345V43H297V45ZM350 50V68H352V50H350ZM345 73H297V75H345V73ZM292 68V50H290V68H292ZM297 73C294.239 73 292 70.7614 292 68H290C290 71.866 293.134 75 297 75V73ZM350 68C350 70.7614 347.761 73 345 73V75C348.866 75 352 71.866 352 68H350ZM345 45C347.761 45 350 47.2386 350 50H352C352 46.134 348.866 43 345 43V45ZM297 43C293.134 43 290 46.134 290 50H292C292 47.2386 294.239 45 297 45V43Z" fill="#272A33"/>
<path d="M379.753 64H378.338V59.9819H373.634V64H372.212V54.8403H373.634V58.687H378.338V54.8403H379.753V64ZM386.082 58.6045C385.777 58.2786 385.373 58.1157 384.87 58.1157C384.366 58.1157 383.951 58.2786 383.625 58.6045C383.3 58.9303 383.118 59.3641 383.08 59.9058H386.571C386.554 59.3599 386.391 58.9261 386.082 58.6045ZM386.564 62.1338H387.878C387.722 62.7559 387.379 63.2446 386.85 63.6001C386.325 63.9556 385.669 64.1333 384.882 64.1333C383.892 64.1333 383.111 63.8159 382.54 63.1812C381.973 62.5422 381.689 61.6704 381.689 60.5659C381.689 59.4614 381.977 58.5833 382.553 57.9316C383.128 57.2799 383.903 56.9541 384.876 56.9541C385.837 56.9541 386.59 57.263 387.136 57.8809C387.686 58.4987 387.961 59.3514 387.961 60.439V60.915H383.08V60.9912C383.101 61.6006 383.276 62.083 383.606 62.4385C383.937 62.7939 384.375 62.9717 384.92 62.9717C385.754 62.9717 386.302 62.6924 386.564 62.1338ZM394.137 62.8511V58.2363H391.706L391.516 60.8389C391.444 61.7064 391.264 62.3411 390.976 62.7432V62.8511H394.137ZM390.176 65.8091H388.907V62.8511H389.465C389.922 62.5718 390.189 61.8778 390.265 60.769L390.519 57.0874H395.496V62.8511H396.575V65.8091H395.305V64H390.176V65.8091ZM402.027 58.6045C401.723 58.2786 401.319 58.1157 400.815 58.1157C400.311 58.1157 399.897 58.2786 399.571 58.6045C399.245 58.9303 399.063 59.3641 399.025 59.9058H402.516C402.499 59.3599 402.336 58.9261 402.027 58.6045ZM402.51 62.1338H403.824C403.667 62.7559 403.324 63.2446 402.795 63.6001C402.271 63.9556 401.615 64.1333 400.828 64.1333C399.837 64.1333 399.057 63.8159 398.485 63.1812C397.918 62.5422 397.635 61.6704 397.635 60.5659C397.635 59.4614 397.923 58.5833 398.498 57.9316C399.074 57.2799 399.848 56.9541 400.821 56.9541C401.782 56.9541 402.535 57.263 403.081 57.8809C403.631 58.4987 403.906 59.3514 403.906 60.439V60.915H399.025V60.9912C399.046 61.6006 399.222 62.083 399.552 62.4385C399.882 62.7939 400.32 62.9717 400.866 62.9717C401.699 62.9717 402.247 62.6924 402.51 62.1338ZM407.524 60.8389C407.491 61.3594 407.431 61.8079 407.347 62.1846C407.262 62.557 407.137 62.8913 406.972 63.1875C406.811 63.4795 406.598 63.6995 406.331 63.8477C406.064 63.9958 405.745 64.0698 405.373 64.0698C405.191 64.0698 405.034 64.0444 404.903 63.9937V62.7178C405.017 62.7516 405.14 62.7686 405.271 62.7686C405.588 62.7686 405.821 62.5972 405.969 62.2544C406.122 61.9116 406.221 61.4165 406.268 60.769L406.509 57.0874H411.27V64H409.905V58.2363H407.715L407.524 60.8389ZM415.859 60.5342H417.097V58.2363H415.859C415.444 58.2363 415.114 58.3421 414.869 58.5537C414.627 58.7653 414.507 59.0531 414.507 59.417C414.507 59.7471 414.63 60.0158 414.875 60.2231C415.125 60.4305 415.453 60.5342 415.859 60.5342ZM417.097 64V61.6323H416.068L414.393 64H412.806L414.691 61.3848C414.213 61.2493 413.836 61.0081 413.561 60.6611C413.29 60.3099 413.155 59.8973 413.155 59.4233C413.155 58.7082 413.394 58.1411 413.872 57.7222C414.35 57.299 414.989 57.0874 415.789 57.0874H418.442V64H417.097Z" fill="#6A6B79"/>
<path d="M367 45H424V43H367V45ZM429 50V68H431V50H429ZM424 73H367V75H424V73ZM362 68V50H360V68H362ZM367 73C364.239 73 362 70.7614 362 68H360C360 71.866 363.134 75 367 75V73ZM429 68C429 70.7614 426.761 73 424 73V75C427.866 75 431 71.866 431 68H429ZM424 45C426.761 45 429 47.2386 429 50H431C431 46.134 427.866 43 424 43V45ZM367 43C363.134 43 360 46.134 360 50H362C362 47.2386 364.239 45 367 45V43Z" fill="#272A33"/>
<path d="M452.533 64H451.212V54.8403H452.875L455.789 61.7974H455.897L458.817 54.8403H460.48V64H459.16V57.3857H459.071L456.386 63.7334H455.307L452.622 57.3857H452.533V64ZM466.809 58.6045C466.504 58.2786 466.1 58.1157 465.596 58.1157C465.093 58.1157 464.678 58.2786 464.352 58.6045C464.026 58.9303 463.844 59.3641 463.806 59.9058H467.297C467.28 59.3599 467.118 58.9261 466.809 58.6045ZM467.291 62.1338H468.605C468.448 62.7559 468.106 63.2446 467.577 63.6001C467.052 63.9556 466.396 64.1333 465.609 64.1333C464.619 64.1333 463.838 63.8159 463.267 63.1812C462.7 62.5422 462.416 61.6704 462.416 60.5659C462.416 59.4614 462.704 58.5833 463.279 57.9316C463.855 57.2799 464.629 56.9541 465.603 56.9541C466.563 56.9541 467.316 57.263 467.862 57.8809C468.412 58.4987 468.688 59.3514 468.688 60.439V60.915H463.806V60.9912C463.827 61.6006 464.003 62.083 464.333 62.4385C464.663 62.7939 465.101 62.9717 465.647 62.9717C466.481 62.9717 467.029 62.6924 467.291 62.1338ZM476.33 59.3472H475.003C474.919 58.9959 474.735 58.7124 474.451 58.4966C474.172 58.2808 473.812 58.1729 473.372 58.1729C472.801 58.1729 472.35 58.3802 472.02 58.7949C471.694 59.2096 471.531 59.7852 471.531 60.5215C471.531 61.2663 471.694 61.8524 472.02 62.2798C472.35 62.703 472.801 62.9146 473.372 62.9146C473.808 62.9146 474.166 62.8172 474.445 62.6226C474.728 62.4279 474.915 62.1465 475.003 61.7783H476.33C476.241 62.4893 475.937 63.0605 475.416 63.4922C474.896 63.9196 474.216 64.1333 473.378 64.1333C472.371 64.1333 471.578 63.8138 470.998 63.1748C470.423 62.5316 470.135 61.6471 470.135 60.5215C470.135 59.4128 470.423 58.541 470.998 57.9062C471.574 57.2715 472.365 56.9541 473.372 56.9541C474.214 56.9541 474.893 57.1742 475.41 57.6143C475.93 58.0544 476.237 58.632 476.33 59.3472ZM480.399 60.5342H481.637V58.2363H480.399C479.984 58.2363 479.654 58.3421 479.409 58.5537C479.167 58.7653 479.047 59.0531 479.047 59.417C479.047 59.7471 479.17 60.0158 479.415 60.2231C479.665 60.4305 479.993 60.5342 480.399 60.5342ZM481.637 64V61.6323H480.608L478.933 64H477.346L479.231 61.3848C478.753 61.2493 478.376 61.0081 478.101 60.6611C477.83 60.3099 477.695 59.8973 477.695 59.4233C477.695 58.7082 477.934 58.1411 478.412 57.7222C478.89 57.299 479.529 57.0874 480.329 57.0874H482.982V64H481.637ZM492.002 65.8091H490.739V64H485.077V57.0874H486.442V62.8511H489.559V57.0874H490.923V62.8511H492.002V65.8091Z" fill="#6A6B79"/>
<path d="M446 45H497V43H446V45ZM502 50V68H504V50H502ZM497 73H446V75H497V73ZM441 68V50H439V68H441ZM446 73C443.239 73 441 70.7614 441 68H439C439 71.866 442.134 75 446 75V73ZM502 68C502 70.7614 499.761 73 497 73V75C500.866 75 504 71.866 504 68H502ZM497 45C499.761 45 502 47.2386 502 50H504C504 46.134 500.866 43 497 43V45ZM446 43C442.134 43 439 46.134 439 50H441C441 47.2386 443.239 45 446 45V43Z" fill="#272A33"/>
<path d="M513 50C513 46.6863 515.686 44 519 44H596C599.314 44 602 46.6863 602 50V68C602 71.3137 599.314 74 596 74H519C515.686 74 513 71.3137 513 68V50Z" fill="#2D7BF6"/>
<path d="M527.977 64H524.212V54.8403H527.894C528.753 54.8403 529.426 55.0456 529.913 55.4561C530.403 55.8623 530.649 56.4188 530.649 57.1255C530.649 57.6037 530.494 58.0332 530.186 58.4141C529.877 58.7907 529.496 59.0171 529.043 59.0933V59.2012C529.661 59.2646 530.158 59.4995 530.535 59.9058C530.916 60.3078 531.106 60.8071 531.106 61.4038C531.106 62.2121 530.829 62.8468 530.274 63.3081C529.72 63.7694 528.954 64 527.977 64ZM525.634 56.0464V58.7188H527.323C527.949 58.7188 528.423 58.6066 528.745 58.3823C529.07 58.1538 529.233 57.8216 529.233 57.3857C529.233 56.9626 529.085 56.6346 528.789 56.4019C528.497 56.1649 528.089 56.0464 527.564 56.0464H525.634ZM525.634 62.7939H527.691C528.33 62.7939 528.817 62.667 529.151 62.4131C529.485 62.1592 529.652 61.7889 529.652 61.3022C529.652 60.8241 529.479 60.4622 529.132 60.2168C528.785 59.9671 528.277 59.8423 527.608 59.8423H525.634V62.7939ZM538.768 59.3472H537.441C537.356 58.9959 537.172 58.7124 536.889 58.4966C536.609 58.2808 536.25 58.1729 535.81 58.1729C535.238 58.1729 534.788 58.3802 534.458 58.7949C534.132 59.2096 533.969 59.7852 533.969 60.5215C533.969 61.2663 534.132 61.8524 534.458 62.2798C534.788 62.703 535.238 62.9146 535.81 62.9146C536.245 62.9146 536.603 62.8172 536.882 62.6226C537.166 62.4279 537.352 62.1465 537.441 61.7783H538.768C538.679 62.4893 538.374 63.0605 537.854 63.4922C537.333 63.9196 536.654 64.1333 535.816 64.1333C534.809 64.1333 534.015 63.8138 533.436 63.1748C532.86 62.5316 532.572 61.6471 532.572 60.5215C532.572 59.4128 532.86 58.541 533.436 57.9062C534.011 57.2715 534.802 56.9541 535.81 56.9541C536.652 56.9541 537.331 57.1742 537.847 57.6143C538.368 58.0544 538.674 58.632 538.768 59.3472ZM544.519 58.6045C544.214 58.2786 543.81 58.1157 543.306 58.1157C542.803 58.1157 542.388 58.2786 542.062 58.6045C541.736 58.9303 541.554 59.3641 541.516 59.9058H545.007C544.99 59.3599 544.827 58.9261 544.519 58.6045ZM545.001 62.1338H546.315C546.158 62.7559 545.816 63.2446 545.287 63.6001C544.762 63.9556 544.106 64.1333 543.319 64.1333C542.329 64.1333 541.548 63.8159 540.977 63.1812C540.41 62.5422 540.126 61.6704 540.126 60.5659C540.126 59.4614 540.414 58.5833 540.989 57.9316C541.565 57.2799 542.339 56.9541 543.312 56.9541C544.273 56.9541 545.026 57.263 545.572 57.8809C546.122 58.4987 546.397 59.3514 546.397 60.439V60.915H541.516V60.9912C541.537 61.6006 541.713 62.083 542.043 62.4385C542.373 62.7939 542.811 62.9717 543.357 62.9717C544.191 62.9717 544.739 62.6924 545.001 62.1338ZM541.96 56.1416C541.719 56.1416 541.516 56.0612 541.351 55.9004C541.19 55.7354 541.11 55.5322 541.11 55.291C541.11 55.0498 541.19 54.8467 541.351 54.6816C541.516 54.5166 541.719 54.4341 541.96 54.4341C542.197 54.4341 542.396 54.5166 542.557 54.6816C542.722 54.8467 542.805 55.0498 542.805 55.291C542.805 55.5322 542.722 55.7354 542.557 55.9004C542.396 56.0612 542.197 56.1416 541.96 56.1416ZM545.268 55.9004C545.107 56.0612 544.908 56.1416 544.671 56.1416C544.434 56.1416 544.233 56.0612 544.068 55.9004C543.903 55.7354 543.82 55.5322 543.82 55.291C543.82 55.0498 543.903 54.8467 544.068 54.6816C544.233 54.5166 544.434 54.4341 544.671 54.4341C544.908 54.4341 545.107 54.5166 545.268 54.6816C545.433 54.8467 545.515 55.0498 545.515 55.291C545.515 55.5322 545.433 55.7354 545.268 55.9004ZM554.599 58.1348H553.069V59.9248H554.446C555.259 59.9248 555.665 59.6243 555.665 59.0234C555.665 58.7441 555.574 58.5262 555.392 58.3696C555.214 58.2131 554.95 58.1348 554.599 58.1348ZM554.542 60.9277H553.069V62.9526H554.713C555.115 62.9526 555.422 62.8659 555.633 62.6924C555.845 62.5189 555.951 62.2692 555.951 61.9434C555.951 61.2663 555.481 60.9277 554.542 60.9277ZM551.717 64V57.0874H554.859C555.532 57.0874 556.056 57.2461 556.433 57.5635C556.814 57.8766 557.004 58.304 557.004 58.8457C557.004 59.1969 556.892 59.5122 556.668 59.7915C556.448 60.0708 556.171 60.2422 555.836 60.3057V60.4136C556.281 60.4644 556.638 60.6379 556.909 60.9341C557.18 61.2261 557.315 61.5837 557.315 62.0068C557.315 62.6162 557.1 63.1007 556.668 63.4604C556.236 63.8201 555.644 64 554.891 64H551.717ZM562.711 56.9731C563.591 56.9731 564.289 57.2948 564.806 57.938C565.322 58.577 565.58 59.4445 565.58 60.5405C565.58 61.6366 565.322 62.5062 564.806 63.1494C564.294 63.7926 563.6 64.1143 562.724 64.1143C562.233 64.1143 561.801 64.0127 561.429 63.8096C561.056 63.6022 560.779 63.3166 560.597 62.9526H560.489V66.2407H559.125V57.0874H560.438V58.23H560.54C560.747 57.8364 561.044 57.5296 561.429 57.3096C561.814 57.0853 562.241 56.9731 562.711 56.9731ZM562.324 62.8892C562.903 62.8892 563.356 62.6818 563.682 62.2671C564.012 61.8481 564.177 61.2726 564.177 60.5405C564.177 59.8084 564.012 59.235 563.682 58.8203C563.356 58.4056 562.906 58.1982 562.33 58.1982C561.755 58.1982 561.3 58.4098 560.965 58.833C560.631 59.252 560.464 59.8232 560.464 60.5469C560.464 61.2663 560.631 61.8376 560.965 62.2607C561.3 62.6797 561.752 62.8892 562.324 62.8892ZM571.42 58.6045C571.115 58.2786 570.711 58.1157 570.208 58.1157C569.704 58.1157 569.289 58.2786 568.963 58.6045C568.638 58.9303 568.456 59.3641 568.417 59.9058H571.909C571.892 59.3599 571.729 58.9261 571.42 58.6045ZM571.902 62.1338H573.216C573.06 62.7559 572.717 63.2446 572.188 63.6001C571.663 63.9556 571.007 64.1333 570.22 64.1333C569.23 64.1333 568.449 63.8159 567.878 63.1812C567.311 62.5422 567.027 61.6704 567.027 60.5659C567.027 59.4614 567.315 58.5833 567.891 57.9316C568.466 57.2799 569.241 56.9541 570.214 56.9541C571.174 56.9541 571.928 57.263 572.474 57.8809C573.024 58.4987 573.299 59.3514 573.299 60.439V60.915H568.417V60.9912C568.439 61.6006 568.614 62.083 568.944 62.4385C569.274 62.7939 569.712 62.9717 570.258 62.9717C571.092 62.9717 571.64 62.6924 571.902 62.1338ZM576.39 64H575.063V57.0874H576.777L579.005 62.0322H579.113L581.348 57.0874H583.011V64H581.684V59.2329H581.563L579.539 63.7207H578.536L576.511 59.2329H576.39V64ZM587.613 60.5342H588.851V58.2363H587.613C587.198 58.2363 586.868 58.3421 586.623 58.5537C586.381 58.7653 586.261 59.0531 586.261 59.417C586.261 59.7471 586.383 60.0158 586.629 60.2231C586.879 60.4305 587.207 60.5342 587.613 60.5342ZM588.851 64V61.6323H587.822L586.146 64H584.56L586.445 61.3848C585.967 61.2493 585.59 61.0081 585.315 60.6611C585.044 60.3099 584.909 59.8973 584.909 59.4233C584.909 58.7082 585.148 58.1411 585.626 57.7222C586.104 57.299 586.743 57.0874 587.543 57.0874H590.196V64H588.851Z" fill="#EEF1F8"/>
</svg>
