<svg width="21" height="17" viewBox="0 0 21 17" fill="none" xmlns="http://www.w3.org/2000/svg">
<path d="M20.0468 2.20224C19.7326 2.3416 19.4096 2.45921 19.0795 2.55469C19.4703 2.11276 19.7682 1.59276 19.9501 1.02373C19.9909 0.896177 19.9486 0.756564 19.8438 0.673145C19.739 0.589661 19.5936 0.579661 19.4783 0.647984C18.7773 1.06373 18.021 1.3625 17.2281 1.53721C16.4293 0.756693 15.3444 0.3125 14.2229 0.3125C11.8554 0.3125 9.92937 2.2385 9.92937 4.60585C9.92937 4.7923 9.94117 4.97772 9.96453 5.16056C7.02679 4.90263 4.29563 3.45869 2.42014 1.15811C2.3533 1.07611 2.25034 1.03192 2.14492 1.04037C2.03943 1.04863 1.94466 1.10811 1.89137 1.19953C1.51098 1.85224 1.30988 2.59876 1.30988 3.3583C1.30988 4.39282 1.67924 5.37437 2.33169 6.14134C2.1333 6.07263 1.94079 5.98675 1.75705 5.88475C1.6584 5.82985 1.53801 5.83069 1.44001 5.88688C1.34195 5.94308 1.28047 6.04643 1.27788 6.1594C1.27743 6.17843 1.27743 6.19746 1.27743 6.21675C1.27743 7.76095 2.10853 9.1512 3.37917 9.90895C3.27001 9.89804 3.16092 9.88224 3.05253 9.86153C2.94079 9.84017 2.82588 9.87933 2.75053 9.96456C2.67505 10.0497 2.65008 10.1684 2.68485 10.2768C3.15517 11.7452 4.36608 12.8253 5.82995 13.1546C4.61582 13.915 3.22737 14.3133 1.76982 14.3133C1.46569 14.3133 1.15982 14.2955 0.860465 14.26C0.711756 14.2424 0.569562 14.3302 0.518917 14.4716C0.468272 14.6131 0.521949 14.7708 0.648465 14.8519C2.52092 16.0525 4.68601 16.6871 6.90956 16.6871C11.2808 16.6871 14.0153 14.6258 15.5395 12.8966C17.4401 10.7404 18.5302 7.88637 18.5302 5.06643C18.5302 4.94863 18.5284 4.82966 18.5248 4.71108C19.2747 4.14611 19.9203 3.46237 20.4456 2.6765C20.5254 2.55714 20.5168 2.3994 20.4243 2.28953C20.332 2.1796 20.1781 2.14405 20.0468 2.20224Z" fill="#808190"/>
</svg>
