<svg width="11" height="7" viewBox="0 0 11 7" fill="none" xmlns="http://www.w3.org/2000/svg">
<path d="M0 3.5C0 2.65865 2.25982 0 5.51662 0C8.77341 0 11 2.65865 11 3.5C11 4.34135 8.74018 7 5.51662 7C2.29305 7 0 4.30769 0 3.5ZM7.77643 3.5C7.77643 2.22115 6.77946 1.21154 5.51662 1.21154C4.25378 1.21154 3.2568 2.22115 3.2568 3.5C3.2568 4.74519 4.25378 5.78846 5.51662 5.78846C6.74622 5.78846 7.77643 4.74519 7.77643 3.5ZM4.6858 3.5C4.6858 3.02885 5.05136 2.65865 5.51662 2.65865C5.98187 2.65865 6.34743 3.02885 6.34743 3.5C6.34743 3.9375 5.98187 4.34135 5.51662 4.34135C5.05136 4.30769 4.6858 3.9375 4.6858 3.5Z" fill="#808190"/>
</svg>
