<svg width="25" height="15" viewBox="0 0 25 15" fill="none" xmlns="http://www.w3.org/2000/svg">
<path d="M13.7099 14.7851C14.3443 14.7851 14.6037 14.3622 14.5964 13.832C14.5641 11.8351 15.3401 10.7601 16.7412 12.1611C18.2912 13.7111 18.612 14.7851 20.4943 14.7851H23.8276C24.6693 14.7851 25.0006 14.5143 25.0006 14.0893C25.0006 13.1903 23.5203 11.6038 22.2662 10.4393C20.5099 8.80905 20.4276 8.77051 21.9401 6.80801C23.8162 4.37155 26.2703 1.24967 24.0995 1.24967H19.9526C19.1485 1.24967 19.0901 1.7028 18.8037 2.3778C17.7672 4.82259 15.7974 7.98926 15.0495 7.50488C14.2672 6.99968 14.6256 4.99863 14.6849 2.02467C14.7006 1.23926 14.6964 0.700716 13.4964 0.421549C12.8412 0.270508 12.2037 0.208008 11.612 0.208008C9.2443 0.208008 7.61097 1.20072 8.53909 1.37363C10.1756 1.67884 10.0183 5.21947 9.63701 6.74863C8.97243 9.41113 6.47451 4.6403 5.43389 2.26426C5.18284 1.69342 5.10576 1.24967 4.20993 1.24967H0.819303C0.306803 1.24967 -0.000488281 1.41634 -0.000488281 1.78717C-0.000488281 2.41426 3.08284 8.78717 6.02659 11.9643C8.89743 15.0632 11.7349 14.7851 13.7099 14.7851Z" fill="#808190"/>
</svg>
